<?xml version="1.0" ?><!DOCTYPE svg  PUBLIC '-//W3C//DTD SVG 1.1//EN'  'http://www.w3.org/Graphics/SVG/1.1/DTD/svg11.dtd'><svg id="Layer_1" style="enable-background:new 0 0 92 92;" version="1.1" viewBox="0 0 92 92" xml:space="preserve" xmlns="http://www.w3.org/2000/svg" xmlns:xlink="http://www.w3.org/1999/xlink"><g><g><g><path d="M62.765,42.804 M62.708,42.923c-0.382,0.816-0.664,1.829-0.664,1.829      c0.085,0.63,0.344,0.988,0.525,1.369c1.224,2.58,2.214,5.239,2.755,8.053c0.392,2.04,0.552,4.091,0.05,6.128      c-0.666,2.702-1.756,5.225-3.401,7.486c-1.82,2.501-4.155,4.369-6.986,5.608c-2.187,0.957-4.49,1.47-6.867,1.627      c-3.221,0.212-6.378-0.185-9.485-1.048c-5.04-1.401-9.117-4.178-12.137-8.465c-0.63-0.894-1.252-1.8-1.794-2.748      c-3.501-6.123-5.14-12.7-4.757-19.762c0.289-5.346,1.973-10.194,5.143-14.518c1.111-1.515,2.356-2.902,3.702-4.193      c0.539-0.407,5.5-4.126,10.892-7.486c0.836-0.413,1.682-0.81,2.544-1.181c0.402-0.173,0.795-0.316,1.233-0.562      c-0.249,0.035,16.699-3.477,24.271,1.568c0.019,0.013,0.038,0.028,0.057,0.041l5.727,4.911c0.046,0.049,0.093,0.097,0.138,0.146      l2.598,3.073c0.671,0.879,1.311,1.785,1.924,2.717c1.809,2.752,3.318,5.662,4.565,8.709c0.068,0.167,0.055,0.458,0.45,0.341      c-0.062-1.388-0.214-2.77-0.524-4.136c-0.248-1.091-0.569-2.142-0.942-3.164l-0.01-0.049c0,0-0.013-0.02-0.015-0.024      c-1.309-3.551-3.356-6.694-6.071-9.459c-1.489-1.516-3.093-2.839-4.803-3.985c-0.001-0.001-0.001-0.001-0.002-0.002      c-5.474-4.705-17.775-7.02-17.775-7.02c-1.044-0.384-1.96-0.408-2.866-0.502c-0.206-0.021-0.411-0.029-0.616-0.046l-0.071-0.011      L49.443,8.17c-2.54-0.206-5.045-0.123-7.516,0.237l-0.052,0.002l-0.056,0.015c-2.194,0.327-4.362,0.859-6.5,1.611      c-0.271,0.096-0.527,0.213-0.794,0.314l-0.167,0.044l-0.108,0.065c-4.137,1.595-7.82,3.809-11.062,6.612l-0.027,0.016      l-0.02,0.022c-2.187,1.896-4.182,4.048-5.99,6.446c-0.137,0.181-0.256,0.369-0.389,0.552l-0.079,0.086l-0.06,0.11      c-2.148,2.976-3.862,6.131-5.131,9.463l-0.04,0.074l-0.022,0.099c-1.191,3.172-2.002,6.495-2.395,9.98      c-0.043,0.385-0.068,0.77-0.1,1.156l-0.011,0.048l0.003,0.039c-0.17,2.163-0.156,4.333,0.107,6.493      c0.167,1.371,0.422,2.711,0.751,4.025L9.787,55.7l0.011,0.025c0.891,3.537,2.358,6.867,4.389,9.981      c1.845,2.83,3.969,5.329,6.335,7.539l0.067,0.08l0.114,0.083c2.342,2.162,4.933,4.028,7.756,5.613l0.179,0.129l0.137,0.048      c1.257,0.692,2.543,1.349,3.891,1.932c2.903,1.255,5.891,2.098,8.965,2.516l0.018,0.006l0.025-0.001      c1.656,0.223,3.336,0.329,5.043,0.297c2.5-0.047,4.982-0.283,7.436-0.767c0.198-0.039,0.394-0.086,0.592-0.128l0.013-0.001      l0.01-0.005c3.671-0.783,7.157-2.057,10.353-4.075c0.661-0.417,1.287-0.863,1.892-1.325l0.021-0.009l0.008-0.015      c3.635-2.783,6.257-6.372,7.747-10.852c1.02-3.067,1.439-6.217,1.213-9.447c-0.13-1.851-0.53-3.581-1.178-5.2l0.002-0.038      l-0.039-0.056c-0.8-1.965-1.974-3.763-3.559-5.375c-0.194-0.197-0.407-0.367-0.607-0.555L70.551,46c0,0-0.053-0.033-0.128-0.08      C64.376,40.048,62.708,42.923,62.708,42.923z M18.032,45.792l0.001-0.005c0,0.003,0,0.005,0,0.008L18.032,45.792z" style="fill:#BF4851;"/></g><path d="M62.603,42.807c0.247,0,0.296-0.015,0.329,0.002c4.186,2.197,7.343,5.329,8.934,9.871     c0.904,2.582,0.974,5.242,0.583,7.914c-0.377,2.573-1.197,5.022-2.362,7.345c-2.893,5.764-7.511,9.458-13.661,11.282     c-3.179,0.943-6.438,1.235-9.741,1.14c-5.499-0.158-10.743-1.418-15.751-3.667c-3.32-1.49-6.194-3.621-8.665-6.279     c-5.021-5.402-7.891-11.825-8.853-19.102c-1.208-9.14,1.117-17.454,6.097-25.088c3.616-5.543,8.357-9.867,14.328-12.787     c3.855-1.885,7.929-2.977,12.204-3.374c5.247-0.487,10.408-0.081,15.468,1.398c5.393,1.576,10.163,4.246,14.119,8.275     c3.513,3.578,5.923,7.781,7.038,12.696c0.31,1.365,0.462,2.748,0.524,4.136c-0.395,0.116-0.381-0.174-0.45-0.341     c-1.246-3.047-2.755-5.957-4.565-8.709c-2.497-3.798-5.446-7.182-9.092-9.929c-3.999-3.013-8.465-4.92-13.442-5.532     c-3.593-0.441-7.167-0.205-10.704,0.575c-4.609,1.016-8.947,2.749-13.06,5.038c-4.064,2.262-7.254,5.468-9.762,9.36     c-2.746,4.261-4.413,8.923-5.085,13.946c-0.999,7.474,0.212,14.565,3.728,21.241c1.748,3.318,3.932,6.315,6.787,8.785     c3.794,3.283,8.184,5.363,13.079,6.365c4.49,0.919,8.965,0.833,13.382-0.474c3.729-1.103,6.991-2.985,9.637-5.868     c2.716-2.959,4.323-6.466,4.946-10.404c1.051-6.639-0.9-12.36-5.466-17.235C62.977,43.224,62.833,43.061,62.603,42.807z" style="fill:#9E2F30;"/><path d="M63.632,41.919c0.251,0.061,0.516,0.091,0.752,0.189c2.576,1.071,4.884,2.553,6.844,4.548     c2.912,2.963,4.484,6.53,4.774,10.669c0.226,3.23-0.193,6.38-1.213,9.447c-1.742,5.236-5.02,9.266-9.669,12.2     c-3.375,2.13-7.071,3.439-10.969,4.208c-2.454,0.484-4.935,0.72-7.436,0.767c-4.891,0.091-9.571-0.882-14.051-2.819     c-7.678-3.318-13.898-8.398-18.479-15.424c-2.794-4.284-4.535-8.97-5.153-14.052c-0.313-2.574-0.29-5.163,0-7.736     c0.848-7.522,3.56-14.324,8.115-20.365c4.73-6.273,10.718-10.898,18.17-13.519c4.816-1.694,9.773-2.335,14.867-1.809     c0.906,0.094,1.822,0.118,2.866,0.502c-0.706,0.107-1.246,0.057-1.781,0.049C46.094,8.7,41.061,9.503,36.208,11.311     c-8.356,3.112-14.59,8.678-18.873,16.466c-2.254,4.099-3.859,8.438-4.587,13.066c-1.23,7.824-0.279,15.352,3.218,22.509     c2.04,4.175,4.998,7.584,8.664,10.401c5.131,3.943,10.863,6.534,17.273,7.509c6.403,0.974,12.597,0.129,18.439-2.664     c6.557-3.136,10.89-8.246,12.839-15.285c0.918-3.314,0.958-6.66,0.027-9.989c-1.198-4.282-3.775-7.548-7.449-9.986     c-0.583-0.387-1.203-0.716-1.795-1.09c-0.127-0.08-0.204-0.238-0.304-0.36L63.632,41.919z" style="fill:#9E2F30;"/><path d="M43.566,14.78c-0.044,0.106-0.06,0.27-0.137,0.309c-0.391,0.196-0.797,0.36-1.199,0.533     c-4.165,1.796-8.049,4.06-11.545,6.965c-2.097,1.743-3.978,3.692-5.593,5.895C21.92,32.806,20.237,37.654,19.948,43     c-0.382,7.062,1.256,13.639,4.757,19.762c0.542,0.948,1.164,1.854,1.794,2.748c3.021,4.286,7.097,7.064,12.137,8.465     c3.107,0.863,6.263,1.26,9.485,1.048c2.377-0.157,4.679-0.669,6.867-1.627c2.83-1.239,5.166-3.107,6.986-5.608     c1.645-2.262,2.735-4.785,3.401-7.486c0.502-2.037,0.342-4.088-0.05-6.128c-0.541-2.813-1.531-5.473-2.755-8.053     c-0.181-0.381-0.44-0.739-0.525-1.369c0.258,0.216,0.392,0.297,0.484,0.411c2.314,2.867,4.032,6.028,4.823,9.661     c0.825,3.792,0.381,7.434-1.463,10.828c-3.177,5.848-8.049,9.488-14.623,10.719c-5.507,1.031-10.809,0.159-15.936-1.955     c-1.129-0.466-2.219-1.042-3.287-1.639c-2.325-1.299-4.261-3.041-5.85-5.191c-3.891-5.262-6.547-11.07-7.679-17.522     c-0.998-5.682-0.608-11.259,1.688-16.62c3.178-7.418,8.479-12.762,15.809-16.109c2.196-1.003,4.479-1.759,6.802-2.403     c0.251-0.07,0.518-0.081,0.777-0.119C43.59,14.812,43.566,14.78,43.566,14.78z" style="fill:#9E2F30;"/><g><path d="M30.493,38.457c0.06-2.876,0.825-5.79,2.34-8.497c1.544-2.757,3.678-4.961,6.156-6.521      c-0.576,0.166-1.085,0.072-1.721-0.325c-1.454-0.908-2.347-0.611-3.182,0.877c-1.852,3.299-3.698,6.602-5.545,9.904      c-1.036,1.851-0.863,2.575,0.995,3.555C30.048,37.717,30.348,38.012,30.493,38.457z" style="fill:#FFDF74;"/></g><path d="M38.52,55.014c-8.868-4.964-11.582-15.614-6.782-24.189s15.297-11.829,24.165-6.865     S67.68,39.683,62.88,48.259S47.388,59.979,38.52,55.014z" style="opacity:0.2;"/><path d="M39.52,54.014c-8.868-4.964-11.582-15.614-6.782-24.189s15.297-11.829,24.165-6.865     S68.68,38.683,63.88,47.259S48.388,58.979,39.52,54.014z" style="fill:#FAEC94;"/><path d="M56.55,55.083c0.012,0.04,0.023,0.081,0.036,0.123c0.418,1.423,0.779,2.867,1.274,4.263     c0.46,1.3,1.654,1.787,2.869,1.982c1.149,0.184,1.644-0.758,2.123-1.633c1.194-2.18,2.421-4.341,3.635-6.509     c2.609-4.661,5.221-9.32,7.825-13.984c0.598-1.071,0.532-1.964-0.265-2.602c-1.04-0.833-2.157-1.392-3.582-0.918     c-1.254,0.417-2.535,0.743-3.743,1.075c-3.231,1.547-4.471,4.974-6.371,8.368C58.445,48.652,56.173,51.511,56.55,55.083z" style="fill:#FFDF74;"/><g><path d="M63.227,29.503c0.099-0.178,0.293-0.294,0.51-0.285c2.23,0.095,3.874,0.819,4.885,2.15      c1.611,2.123,0.969,4.976,0.941,5.096c-0.07,0.3-0.369,0.486-0.669,0.416c-0.299-0.07-0.485-0.369-0.416-0.668      c0.01-0.044,0.543-2.482-0.748-4.176c-0.801-1.051-2.161-1.625-4.041-1.705c-0.307-0.013-0.546-0.273-0.533-0.58      C63.16,29.661,63.185,29.576,63.227,29.503z" style="fill:#4D4D4D;"/><path d="M48.402,55.985c-0.099,0.178-0.097,0.403,0.024,0.583c1.247,1.851,2.723,2.874,4.387,3.04      c2.652,0.264,4.748-1.775,4.836-1.862c0.219-0.217,0.221-0.569,0.005-0.787c-0.216-0.219-0.568-0.221-0.787-0.005      c-0.032,0.032-1.832,1.761-3.951,1.546c-1.315-0.133-2.515-0.992-3.566-2.553c-0.172-0.255-0.518-0.323-0.773-0.151      C48.502,55.846,48.443,55.911,48.402,55.985z" style="fill:#4D4D4D;"/></g></g></g></svg>