<?xml version="1.0" ?><!DOCTYPE svg  PUBLIC '-//W3C//DTD SVG 1.1//EN'  'http://www.w3.org/Graphics/SVG/1.1/DTD/svg11.dtd'><svg id="Layer_1" style="enable-background:new 0 0 92 92;" version="1.1" viewBox="0 0 92 92" xml:space="preserve" xmlns="http://www.w3.org/2000/svg" xmlns:xlink="http://www.w3.org/1999/xlink"><g><g><path d="M25.508,47.814c0,0-12.375,18,11.625,34.25c0,0,1.75-7.5,8.5-8.75     C45.633,73.314,47.883,38.564,25.508,47.814z" style="fill:#FFDF74;"/><path d="M32.383,47.248c0,0-1.31,13.847,3.5,21.316c4.81,7.469,16.5,7.5,17.167,7.5     c0.667,0,7.833,0.167,10.667,1.167c2.671,0.943,6.971,3.218,9.409,1.243c0.148-0.12-4.793-3.59-4.659-3.743     c0,0,5.167,3.583,6.738,2.885c1.804-0.802,4.817-2.226,6.345-5.718c0,0,2.833-3.5,0-5.5c-2.833-2-8.5-6.667-9.5-12.667     s-4.333-13.167-8.667-13.667s-18.326-6.167-31.163,6.167" style="opacity:0.2;"/><path d="M33.383,46.248c0,0-1.31,13.847,3.5,21.316c4.81,7.469,16.5,7.5,17.167,7.5     c0.667,0,7.833,0.167,10.667,1.167c2.671,0.943,6.971,3.218,9.409,1.243c0.148-0.12-4.793-3.59-4.659-3.743     c0,0,5.167,3.583,6.738,2.885c1.804-0.802,4.817-2.226,6.345-5.718c0,0,2.833-3.5,0-5.5c-2.833-2-8.5-6.667-9.5-12.667     s-4.333-13.167-8.667-13.667s-18.326-6.167-31.163,6.167" style="fill:#FAEC94;"/><path d="M56.258,50.127c0,0,4.329-1.515,8.125,0c4.125,1.646,6.188,7.896,6.188,7.896     s-3.313-3.896-4.125-3.958c0,0-2.396,0.458-5.25-0.465c-1.886-0.61-3.625-2.223-4-3.285L56.258,50.127z" style="fill:#F5B400;"/><path d="M64.901,52.978c-0.788,0-2.007-0.091-3.337-0.521c-1.068-0.346-2.03-1.067-2.628-1.694     c0.503-0.065,1.063-0.11,1.653-0.11c1.245,0,2.372,0.198,3.349,0.588c0.84,0.336,1.604,0.93,2.279,1.646     C66.178,52.893,65.675,52.978,64.901,52.978z" style="fill:#4D4D4D;"/><path d="M24.331,19.186c0,0,3.135-6.872,15.635-8.955s21.667,7.493,22.667,8.955     s6.833,10.462,3.083,18.795s-13.67,6.802-16.918,4.609C48.798,42.59,53.112,16.224,24.331,19.186z" style="fill:#AF3E4B;"/><path d="M59.659,16.216c0,0,11.224,0.848,14.307,9.765s0.542,14.22-3.396,18.985     c0,0-2.135-4.618-5.494-5.76C65.076,39.206,71.268,27.368,59.659,16.216z" style="fill:#BF4851;"/><path d="M35.269,11.35c0,0-0.405,1.839,0,2.714c0,0,0.613-2.915,1.19-3.068L35.269,11.35z" style="fill:#9E2F30;"/><path d="M52.076,11.645c0,0-3.776,3.336-4.109,4.128c0,0,4.196-3.011,6.577-2.985L52.076,11.645z" style="fill:#9E2F30;"/><path d="M66.508,28.606c0,0-5.25,1.875-7.584,1.583c0,0,5.602,1.137,7.78,0.402L66.508,28.606z" style="fill:#9E2F30;"/><path d="M75.048,30.092c0,0-1.915-0.306-2.665,0c0,0,2.825,1.081,2.848,1.3L75.048,30.092z" style="fill:#9E2F30;"/><path d="M21.549,28.064c0,0-6,8.868,1.833,18.184s18.5,2.816,18.5,2.816s14.167-7.833,7.667-21     s-18.167-10.167-21.167-10s-17.5,5.205-20.5,20.269C7.883,38.333,13.883,29.398,21.549,28.064z" style="fill:#BF4851;"/><path d="M19.693,21.559c0,0-0.524,2.547,0,3.463c0,0,0.484-3.839,1.743-4.479L19.693,21.559z" style="fill:#9E2F30;"/><path d="M37.617,18.057c0,0-3.06,2.257-4.397,5.132c0,0,4.842-4.243,6.794-4.434L37.617,18.057z" style="fill:#9E2F30;"/><path d="M51.256,35.273c0,0-2.123,1.917-7.04,1.375c0,0,4.632,1.595,6.649,1.36     C50.865,38.008,51.258,35.898,51.256,35.273z" style="fill:#9E2F30;"/><path d="M28.653,50.267c0,0-0.187-2.661,0.355-5.661c0,0-1.706,2.692-1.77,4.95L28.653,50.267z" style="fill:#9E2F30;"/><path d="M19.46,37.694c0,0,1.112-1.338,1.976-1.296c0,0-1.813-0.288-2.079,0.254L19.46,37.694z" style="fill:#9E2F30;"/><path d="M21.549,28.064c0,0,4.458-1.708,9.792,0.917s5.917,6.425,4.375,7.671s-2.367,0.426-2.496-0.331     c-0.129-0.757,0.208-2.191,1.58-2.507C34.799,33.814,30.174,26.814,21.549,28.064z" style="fill:#9E2F30;"/><path d="M80.901,64.156c0,0-2.351,3.575,1.649,6.741C82.549,70.898,87.002,66.665,80.901,64.156z" style="fill:#4D4D4D;"/></g></g></svg>