<?xml version="1.0" ?><!DOCTYPE svg  PUBLIC '-//W3C//DTD SVG 1.1//EN'  'http://www.w3.org/Graphics/SVG/1.1/DTD/svg11.dtd'><svg id="Layer_1" style="enable-background:new 0 0 92 92;" version="1.1" viewBox="0 0 92 92" xml:space="preserve" xmlns="http://www.w3.org/2000/svg" xmlns:xlink="http://www.w3.org/1999/xlink"><g><g><path d="M40.092,5.397c-0.163,0.032-0.327,0.058-0.489,0.096c-2.828,0.649-4.99,2.255-6.626,4.615     c-1.212,1.749-2.017,3.688-2.533,5.736c-0.976,3.869-2.893,7.204-5.569,10.133c-0.412,0.451-0.793,0.933-1.162,1.42     c-1.19,1.569-2.421,3.1-3.844,4.557c-2.291-0.276-4.585-0.552-6.98-0.84c0.084-0.258,0.124-0.46,0.214-0.636     c0.099-0.193,0.247-0.361,0.371-0.541c1.696-2.456,3.168-5.037,4.321-7.794c0.186-0.444,0.393-0.879,0.576-1.324     c2.042-4.976,5.494-8.806,9.787-11.921c2.549-1.85,5.392-3.069,8.521-3.571C37.806,5.145,38.936,5.094,40.092,5.397z" style="fill:#BF4851;"/><path d="M72.183,31.962c-0.223-0.216-0.427-0.382-0.592-0.581c-1.065-1.278-2.122-2.563-3.18-3.846     c-0.473-0.574-0.92-1.17-1.417-1.722c-2.595-2.881-4.459-6.151-5.41-9.93c-0.396-1.574-0.978-3.086-1.767-4.513     c-0.662-1.196-1.459-2.288-2.455-3.228c-1.264-1.193-2.717-2.056-4.409-2.497c-0.362-0.095-0.719-0.21-1.334-0.391     c1.907-0.224,3.504-0.033,5.088,0.344c2.546,0.605,4.867,1.708,7.012,3.19c3.101,2.142,5.64,4.844,7.788,7.921     c0.931,1.334,1.585,2.821,2.219,4.314c1.046,2.46,2.172,4.879,3.641,7.123c0.431,0.659,0.872,1.313,1.303,1.972     c0.165,0.252,0.314,0.514,0.454,0.746c-0.044,0.09-0.057,0.133-0.084,0.167c-0.025,0.031-0.06,0.07-0.095,0.075     C76.692,31.393,74.438,31.677,72.183,31.962z" style="fill:#BF4851;"/><path d="M61.938,55.647c-2.427,4.858-5.954,11.504-15.93,11.504s-13.527-6.689-15.939-11.504     C30.209,55.647,61.724,55.69,61.938,55.647z" style="fill:#FFDF74;"/><path d="M27.084,44.66c-0.174,0.85-0.342,1.978-0.647,3.068c-0.303,1.083-0.973,1.409-2.008,1.009     c-0.558-0.216-1.1-0.555-1.551-0.95c-0.688-0.603-1.312-1.283-1.924-1.967c-0.79-0.884-1.623-1.709-2.592-2.401     c-0.532-0.38-1.023-0.821-1.503-1.266c-0.319-0.296-0.614-0.627-0.868-0.979c-0.929-1.289-0.799-2.135,0.47-3.124     c0.517-0.403,1.044-0.796,1.593-1.154c0.363-0.237,0.758-0.445,1.165-0.592c0.883-0.318,1.733-0.234,2.458,0.406     c0.358,0.316,0.68,0.678,0.99,1.042c0.878,1.031,1.751,2.066,2.608,3.114c0.469,0.574,0.926,1.162,1.343,1.774     C26.969,43.157,27.102,43.758,27.084,44.66z" style="fill:#BF4851;"/><path d="M64.86,44.303c0.066-0.653,0.226-1.246,0.589-1.755c0.456-0.639,0.953-1.249,1.451-1.856     c0.775-0.946,1.563-1.88,2.35-2.816c0.281-0.334,0.552-0.681,0.865-0.983c0.846-0.815,1.824-0.976,2.899-0.504     c1.176,0.516,2.167,1.312,3.115,2.153c0.548,0.486,0.64,1.155,0.343,1.805c-0.214,0.47-0.499,0.935-0.852,1.307     c-0.569,0.6-1.179,1.18-1.847,1.664c-1.108,0.804-2.051,1.762-2.959,2.773c-0.583,0.649-1.209,1.262-1.852,1.853     c-0.452,0.416-0.986,0.728-1.598,0.867c-0.907,0.207-1.488-0.039-1.738-0.931C65.299,46.709,65.109,45.498,64.86,44.303z" style="fill:#BF4851;"/><path d="M63.561,23.207c-6.156-0.886-12.704-7.792-13.143-13.928c0.863,1.31,1.617,2.532,2.685,3.511     c1.039,0.953,2.155,1.8,3.424,2.404c1.297,0.617,2.638,1.14,3.946,1.698c0.426,1.077,0.796,2.2,1.309,3.253     C62.291,21.187,62.944,22.158,63.561,23.207z" style="fill:#9E2F30;"/><path d="M28.407,23.277c0.679-1.153,1.338-2.135,1.853-3.186c0.497-1.013,0.846-2.098,1.312-3.284     c0.19-0.069,0.508-0.198,0.835-0.303c1.801-0.58,3.487-1.393,5.027-2.498c1.475-1.058,2.703-2.346,3.622-3.919     c0.129-0.22,0.266-0.435,0.523-0.853c0,0.42,0.036,0.616-0.005,0.793c-1.159,5.055-4.025,8.843-8.512,11.415     C31.575,22.294,29.98,22.922,28.407,23.277z" style="fill:#9E2F30;"/><path d="M31.091,61.045c-0.019,0.165,0.01,0.355-0.067,0.479c-0.111,0.178-0.284,0.328-0.456,0.457     c-2.574,1.939-5.38,3.405-8.557,4.063c-1.458,0.302-2.936,0.435-4.421,0.154c-0.298-0.057-0.604-0.106-0.886-0.212     c-0.678-0.255-0.834-0.806-0.298-1.319c1.353-1.295,2.884-2.269,4.855-2.235c0.433,0.007,0.881,0.036,1.293,0.157     c0.7,0.206,1.38,0.18,2.063-0.013c1.132-0.32,2.261-0.652,3.391-0.982c0.669-0.196,1.334-0.407,2.006-0.593     c0.207-0.057,0.431-0.07,0.647-0.071C30.784,60.928,30.908,60.993,31.091,61.045z" style="fill:#9E2F30;"/><path d="M60.965,61.05c0.424-0.24,0.848-0.111,1.265,0.013c0.836,0.248,1.667,0.515,2.504,0.759     c0.963,0.28,1.927,0.558,2.898,0.81c0.554,0.144,1.117,0.148,1.683-0.006c1.655-0.451,3.201-0.173,4.632,0.755     c0.475,0.308,0.939,0.637,1.383,0.988c0.199,0.158,0.36,0.38,0.496,0.599c0.199,0.321,0.091,0.741-0.254,0.89     c-0.355,0.153-0.737,0.263-1.118,0.334c-1.799,0.333-3.574,0.11-5.316-0.346c-2.825-0.739-5.354-2.094-7.674-3.85     C61.007,61.649,61.016,61.636,60.965,61.05z" style="fill:#9E2F30;"/><path d="M74.252,55.42c0.495,0.11,1.263,0.265,2.021,0.456c0.247,0.062,0.485,0.195,0.702,0.335     c0.33,0.212,0.406,0.64,0.13,0.897c-0.315,0.293-0.665,0.568-1.041,0.775c-1.391,0.768-2.896,1.224-4.465,1.413     c-2.583,0.311-5.14,0.115-7.653-0.573c-0.329-0.09-0.646-0.246-0.939-0.423c-0.063-0.038-0.038-0.41,0.02-0.432     c0.4-0.152,0.813-0.313,1.234-0.357c1.128-0.117,2.262-0.171,3.393-0.263c0.477-0.039,0.953-0.104,1.427-0.172     c0.657-0.094,1.255-0.328,1.806-0.712C71.809,55.722,72.846,55.424,74.252,55.42z" style="fill:#9E2F30;"/><path d="M23.155,59.423c-2.601,0.041-4.862-0.343-6.971-1.422c-0.385-0.197-0.764-0.428-1.096-0.704     c-0.507-0.423-0.435-0.976,0.191-1.233c1.852-0.76,3.747-1.018,5.525,0.12c1.118,0.716,2.3,0.995,3.581,1.07     c1.089,0.064,2.179,0.14,3.264,0.246c0.428,0.042,0.851,0.164,1.267,0.284c0.09,0.026,0.19,0.198,0.192,0.304     c0.002,0.109-0.086,0.281-0.178,0.32c-0.36,0.15-0.732,0.279-1.11,0.377C26.209,59.206,24.57,59.431,23.155,59.423z" style="fill:#9E2F30;"/><path d="M12.371,55.642c-0.481,0.034-0.94-0.131-1.316-0.441c-0.47-0.387-0.942-0.792-1.326-1.261     c-1.398-1.707-2.361-3.676-3.298-5.656c-0.037-0.078-0.057-0.165-0.078-0.25c-0.065-0.266,0.133-0.585,0.398-0.555     c0.381,0.044,0.794,0.092,1.12,0.272c0.609,0.337,1.194,0.735,1.736,1.173c0.782,0.632,1.494,1.353,2.279,1.981     c0.819,0.655,1.694,1.239,2.534,1.869c0.276,0.207,0.566,0.424,0.765,0.697c0.386,0.529,0.252,1.104-0.282,1.482     C14.429,55.289,13.154,55.639,12.371,55.642z" style="fill:#9E2F30;"/><path d="M79.712,55.67c-0.961-0.118-1.741-0.231-2.44-0.618c-0.779-0.432-0.882-1.199-0.255-1.839     c0.18-0.184,0.405-0.33,0.625-0.469c1.256-0.796,2.393-1.739,3.503-2.727c0.843-0.751,1.76-1.422,2.67-2.094     c0.383-0.283,0.824-0.488,1.333-0.47c0.401,0.014,0.655,0.338,0.484,0.708c-1.01,2.177-2.059,4.335-3.665,6.154     c-0.341,0.387-0.754,0.736-1.195,1.001C80.415,55.529,79.967,55.59,79.712,55.67z" style="fill:#9E2F30;"/><path d="M14.559,33.026c0.65-0.046,1.299-0.114,1.95-0.133c0.65-0.019,1.303-0.01,1.952,0.031     c0.251,0.016,0.508,0.127,0.736,0.245c0.464,0.24,0.607,0.848,0.232,1.214c-0.366,0.357-0.816,0.639-1.259,0.906     c-0.706,0.426-1.445,0.798-2.152,1.221c-0.61,0.365-1.259,0.605-1.959,0.675c-1.535,0.154-2.755-0.852-2.893-2.357     c-0.092-1.003,0.317-1.606,1.306-1.763c0.683-0.108,1.386-0.095,2.08-0.136C14.555,32.963,14.557,32.994,14.559,33.026z" style="fill:#9E2F30;"/><path d="M80.858,34.511c0.037,1.625-1.216,2.815-2.849,2.677c-0.701-0.059-1.356-0.287-1.968-0.648     c-0.748-0.441-1.519-0.843-2.265-1.287c-0.407-0.243-0.825-0.496-1.161-0.824c-0.424-0.414-0.282-1.062,0.266-1.291     c0.355-0.148,0.749-0.242,1.133-0.275c0.474-0.04,0.956,0.005,1.435,0.019c0.825,0.024,1.651,0.044,2.476,0.083     c0.607,0.029,1.225,0.024,1.816,0.145C80.49,33.262,80.842,33.77,80.858,34.511z" style="fill:#9E2F30;"/><path d="M84.733,58.168c0.13,0.354,0.23,0.508,0.239,0.667c0.06,1.146-0.116,2.264-0.509,3.339     c-0.393,1.077-1.181,1.734-2.313,1.874c-1.254,0.155-2.517,0.242-3.779,0.323c-0.616,0.039-1.226-0.062-1.745-0.438     c-0.28-0.203-0.565-0.426-0.477-0.94c0.971-0.337,1.982-0.698,3-1.039c1.083-0.363,2.126-0.815,3.017-1.533     C83.004,59.748,83.786,59.005,84.733,58.168z" style="fill:#9E2F30;"/><path d="M7.285,58.217c0.306,0.23,0.574,0.372,0.762,0.584c1.335,1.505,2.956,2.56,4.872,3.166     c0.871,0.275,1.737,0.565,2.606,0.848c0.398,0.129,0.482,0.482,0.2,0.811c-0.328,0.383-0.754,0.59-1.236,0.676     c-0.299,0.053-0.61,0.091-0.911,0.07c-1.217-0.087-2.436-0.173-3.647-0.312C8.74,63.923,7.93,63.246,7.53,62.117     c-0.367-1.036-0.531-2.112-0.49-3.211C7.047,58.708,7.175,58.516,7.285,58.217z" style="fill:#9E2F30;"/><path d="M90.602,50.272c0.856,0.943,0.811,1.899,0.666,2.862c-0.051,0.342-0.198,0.669-0.298,1.004     c-0.225,0.752-0.469,1.499-0.663,2.259c-0.091,0.355-0.186,0.683-0.528,0.856c-0.941,0.477-1.928,0.831-2.978,0.967     c-0.471,0.061-0.73-0.31-0.543-0.759c0.134-0.321,0.298-0.633,0.485-0.926c0.259-0.405,0.549-0.79,0.834-1.178     C88.711,53.812,89.922,52.313,90.602,50.272z" style="fill:#9E2F30;"/><path d="M5.852,57.95c-0.208,0.088-0.444,0.286-0.652,0.26c-1.049-0.131-2.046-0.471-2.971-0.979     c-0.204-0.112-0.42-0.38-0.45-0.601c-0.154-1.097-0.611-2.097-0.93-3.141c-0.278-0.91-0.291-1.812,0.142-2.683     c0.073-0.147,0.2-0.268,0.322-0.426c0.114,0.126,0.242,0.206,0.276,0.315c0.372,1.19,1.07,2.199,1.78,3.199     c0.583,0.821,1.195,1.62,1.775,2.443C5.469,56.799,5.808,57.265,5.852,57.95z" style="fill:#9E2F30;"/><path d="M58.622,64.101c0.156-0.01,0.338-0.068,0.491-0.024c2.757,0.795,5.163,2.139,6.876,4.516     c0.302,0.419,0.522,0.906,0.722,1.385c0.158,0.379-0.124,0.718-0.537,0.651c-1.396-0.224-2.641-0.769-3.275-2.111     c-0.453-0.96-1.171-1.612-1.982-2.215c-0.631-0.47-1.269-0.931-1.889-1.415C58.798,64.709,58.52,64.526,58.622,64.101z" style="fill:#9E2F30;"/><path d="M33.408,64.155c0.074,0.373-0.198,0.56-0.432,0.742c-0.62,0.483-1.256,0.946-1.888,1.414     c-0.812,0.602-1.526,1.256-1.976,2.217c-0.606,1.295-1.814,1.834-3.148,2.095c-0.558,0.109-0.828-0.24-0.624-0.782     c0.122-0.324,0.287-0.637,0.47-0.931c0.657-1.052,1.522-1.912,2.514-2.645c1.277-0.944,2.692-1.617,4.203-2.093     c0.204-0.064,0.425-0.085,0.64-0.103C33.243,64.062,33.326,64.124,33.408,64.155z" style="fill:#9E2F30;"/><path d="M23.607,78.965c-0.348-1.585-0.406-3.195-0.297-4.814c0.015-0.217,0.069-0.432,0.119-0.644     c0.301-1.295,1.178-2.013,2.512-2.061c0.545-0.02,0.932,0.38,0.861,0.908c-0.023,0.171-0.068,0.349-0.145,0.502     c-0.63,1.261-0.962,2.623-1.383,3.957c-0.208,0.66-0.544,1.283-0.857,1.905C24.282,78.985,24.233,78.968,23.607,78.965z" style="fill:#9E2F30;"/><path d="M68.377,79.072c-0.247-0.067-0.499-0.063-0.626-0.187c-0.213-0.207-0.383-0.48-0.506-0.755     c-0.215-0.477-0.416-0.966-0.56-1.468c-0.36-1.261-0.702-2.525-1.284-3.709c-0.198-0.404-0.312-0.859,0.007-1.24     c0.329-0.393,0.785-0.276,1.22-0.171c1.196,0.288,1.916,1.002,2.031,2.254C68.821,75.542,68.788,77.278,68.377,79.072z" style="fill:#9E2F30;"/><path d="M5.32,37.717c0.089,1.006,0.111,1.743,0.228,2.465c0.264,1.618,0.966,3.076,1.746,4.5     c0.204,0.371,0.403,0.745,0.614,1.137c-0.611,0.327-1.163,0.291-1.73,0.169c-0.81-0.175-1.33-0.679-1.531-1.452     c-0.297-1.14-0.538-2.296-0.78-3.45c-0.101-0.481-0.026-0.96,0.187-1.408c0.131-0.276,0.255-0.558,0.42-0.813     C4.681,38.542,4.927,38.244,5.32,37.717z" style="fill:#9E2F30;"/><path d="M86.552,37.997c1.31,1.08,1.979,2.301,1.403,3.936c-0.231,0.654-0.316,1.361-0.459,2.045     c-0.375,1.804-1.409,2.401-3.358,1.859c0.127-0.271,0.246-0.529,0.368-0.786c0.523-1.105,1.086-2.194,1.554-3.321     c0.249-0.599,0.392-1.257,0.476-1.903C86.613,39.225,86.552,38.607,86.552,37.997z" style="fill:#9E2F30;"/><path d="M59.63,77.946c-0.041-0.654-0.087-1.307-0.12-1.962c-0.013-0.26-0.026-0.526,0.013-0.781     c0.064-0.422,0.478-0.643,0.891-0.508c1.216,0.396,1.879,1.326,1.72,2.579c-0.092,0.73-0.298,1.455-0.535,2.154     c-0.266,0.783-0.613,1.54-0.953,2.296c-0.058,0.13-0.297,0.306-0.377,0.273c-0.176-0.071-0.395-0.24-0.434-0.407     c-0.127-0.55-0.218-1.114-0.254-1.678c-0.041-0.653-0.01-1.31-0.01-1.965C59.592,77.947,59.611,77.946,59.63,77.946z" style="fill:#9E2F30;"/><path d="M30.741,74.03c-0.336-0.54-0.169-1.06-0.039-1.554c0.247-0.935,0.663-1.802,1.202-2.607     c0.938-1.399,2.125-2.547,3.52-3.481c0.171-0.114,0.38-0.171,0.55-0.245c0.243,0.238,0.18,0.453,0.056,0.634     c-0.445,0.648-0.901,1.289-1.362,1.926c-0.569,0.784-1.021,1.593-1.171,2.593c-0.198,1.316-1.118,2.131-2.261,2.703     C31.099,74.067,30.903,74.022,30.741,74.03z" style="fill:#9E2F30;"/><path d="M32.426,78.014c0,0.743,0.038,1.489-0.013,2.228c-0.036,0.516-0.183,1.026-0.311,1.531     c-0.026,0.103-0.196,0.25-0.283,0.239c-0.149-0.019-0.294-0.133-0.424-0.231c-0.064-0.048-0.1-0.144-0.129-0.225     c-0.417-1.148-0.833-2.296-1.243-3.446c-0.058-0.164-0.097-0.337-0.125-0.509c-0.237-1.422,0.21-2.255,1.516-2.836     c0.592-0.263,1.076,0.002,1.11,0.631c0.016,0.303-0.035,0.61-0.051,0.915c-0.03,0.567-0.058,1.135-0.086,1.702     C32.4,78.014,32.413,78.014,32.426,78.014z" style="fill:#9E2F30;"/><path d="M55.682,66.078c0.45,0.123,0.628,0.129,0.755,0.213c2.014,1.33,3.622,3.019,4.567,5.273     c0.271,0.647,0.48,1.316,0.457,2.032c-0.011,0.343-0.336,0.566-0.645,0.419c-1.159-0.552-2.089-1.375-2.292-2.678     c-0.164-1.048-0.638-1.888-1.234-2.704c-0.361-0.495-0.737-0.978-1.079-1.485C56.046,66.901,55.944,66.614,55.682,66.078z" style="fill:#9E2F30;"/><path d="M65.075,85.425c1.342-1.879,1.485-3.79,1.598-5.743c0.622-0.034,0.984,0.312,1.298,0.733     c0.283,0.38,0.305,0.823,0.169,1.246c-0.252,0.784-0.512,1.571-0.84,2.325C66.943,84.804,66.209,85.148,65.075,85.425z" style="fill:#9E2F30;"/><path d="M26.59,85.335c-1.118-0.256-1.863-0.881-2.123-2.046c-0.095-0.423-0.293-0.823-0.446-1.232     c-0.474-1.266-0.192-1.843,1.174-2.376c0.238,0.128,0.176,0.369,0.186,0.568c0.084,1.723,0.354,3.394,1.316,4.881     C26.715,85.159,26.632,85.255,26.59,85.335z" style="fill:#9E2F30;"/><path d="M55.856,86.832c0.483-0.533,0.93-0.95,1.282-1.436c0.356-0.492,0.64-1.041,0.914-1.587     c0.268-0.536,0.483-1.098,0.732-1.672c1.134,0.913,1.232,1.477,0.493,2.463c-0.288,0.384-0.606,0.749-0.867,1.151     C57.819,86.658,56.964,86.883,55.856,86.832z" style="fill:#9E2F30;"/><path d="M36.158,86.836c-1.111,0.044-1.973-0.18-2.562-1.096c-0.259-0.402-0.579-0.765-0.866-1.15     c-0.732-0.983-0.623-1.582,0.508-2.433c0.247,0.569,0.464,1.13,0.733,1.666c0.273,0.545,0.557,1.094,0.913,1.585     C35.234,85.894,35.68,86.31,36.158,86.836z" style="fill:#9E2F30;"/><path d="M37.071,36.472c1.787-0.856,3.671-1.405,5.634-1.703c3.993-0.605,7.853-0.151,11.583,1.398     c0.121,0.05,0.239,0.11,0.359,0.162c1.015,0.443,3.368,0.03,3.292,0.547c0.023,1.843,0.222,2.948,1.352,4.347     c0.523,0.647,1.06,1.283,1.594,1.92c1.072,1.28,2.041,2.63,2.746,4.151c0.52,1.12,0.921,2.283,0.872,3.537     c-0.022,0.562-0.07,1.159-0.28,1.669c-0.433,1.048-0.978,2.05-1.487,3.066c-0.097,0.194-0.236,0.369-0.366,0.544     c-1.906,2.554-4.451,3.412-7.529,2.795c-0.598-0.12-1.185-0.318-1.757-0.534c-2.926-1.104-5.958-1.366-9.048-1.162     c-1.449,0.096-2.85,0.453-4.232,0.883c-0.794,0.247-1.581,0.514-2.38,0.742c-1.113,0.318-2.255,0.341-3.387,0.159     c-1.332-0.214-2.489-0.821-3.444-1.779c-1.395-1.398-2.271-3.108-2.816-4.978c-0.35-1.201-0.229-2.424,0.146-3.624     c0.423-1.357,1.123-2.566,1.957-3.698c0.909-1.233,1.864-2.433,2.807-3.641c0.827-1.059,1.42-2.217,1.449-3.588     C34.147,37.121,36.51,36.741,37.071,36.472z" style="opacity:0.2;"/><path d="M37.071,35.472c1.787-0.856,3.671-1.405,5.634-1.703c3.993-0.605,7.853-0.151,11.583,1.398     c0.121,0.05,0.239,0.11,0.359,0.162c1.015,0.443,3.368,0.03,3.292,0.547c0.023,1.843,0.222,2.948,1.352,4.347     c0.523,0.647,1.06,1.283,1.594,1.92c1.072,1.28,2.041,2.63,2.746,4.151c0.52,1.12,0.921,2.283,0.872,3.537     c-0.022,0.562-0.07,1.159-0.28,1.669c-0.433,1.048-0.978,2.05-1.487,3.066c-0.097,0.194-0.236,0.369-0.366,0.544     c-1.906,2.554-4.451,3.412-7.529,2.795c-0.598-0.12-1.185-0.318-1.757-0.534c-2.926-1.104-5.958-1.366-9.048-1.162     c-1.449,0.096-2.85,0.453-4.232,0.883c-0.794,0.247-1.581,0.514-2.38,0.742c-1.113,0.318-2.255,0.341-3.387,0.159     c-1.332-0.214-2.489-0.821-3.444-1.779c-1.395-1.398-2.271-3.108-2.816-4.978c-0.35-1.201-0.229-2.424,0.146-3.624     c0.423-1.357,1.123-2.566,1.957-3.698c0.909-1.233,1.864-2.433,2.807-3.641c0.827-1.059,1.42-2.217,1.449-3.588     C34.147,36.121,36.51,35.741,37.071,35.472z" style="fill:#FAEC94;"/><path d="M34.111,37.114c0,0-0.042-1.375-0.208-2.958c-0.167-1.583,0.5-0.792,0.5-0.792     s1.207,2.161,2,2.333C37.196,35.87,34.361,37.531,34.111,37.114z" style="fill:#F5B400;"/><path d="M57.891,37.114c0,0,0.042-1.375,0.208-2.958c0.167-1.583-0.5-0.792-0.5-0.792     s-1.207,2.161-2,2.333C54.805,35.87,57.641,37.531,57.891,37.114z" style="fill:#F5B400;"/></g></g></svg>