<?xml version="1.0" ?><!DOCTYPE svg  PUBLIC '-//W3C//DTD SVG 1.1//EN'  'http://www.w3.org/Graphics/SVG/1.1/DTD/svg11.dtd'><svg id="Layer_1" style="enable-background:new 0 0 90 90;" version="1.1" viewBox="0 0 90 90" xml:space="preserve" xmlns="http://www.w3.org/2000/svg" xmlns:xlink="http://www.w3.org/1999/xlink"><g><g><path d="M62.067,73.578c0,0,3.75,0,4.375-1.563c0.625-1.562,0.187-1.937-1.188-3.75     c-1.375-1.812-2.624-3.563,4.188-8.219l1.74,0.624c0,0-2.991,2.282-2.991,4.47c0,2.188,2.78,3.729,2.375,5.125     C70.004,72.203,67.567,75.516,62.067,73.578z" style="fill:#5C5C5C;"/><path d="M42.449,26.944c0,0-12.445,10.01-14.695,20.322c-2.25,10.313-1.447,22.875,10.714,30     s23.598,2.438,23.598,2.438s-20.036-8.063-1.049-21.813l-6.275-32.795L42.449,26.944z" style="fill:#FFDF74;"/><path d="M53.942,24.516c0,0-6.333-11.75-21.833-6.75s-28.667,30.667-14.5,51.333     c0,0-17.833-16.066-8.167-38.366S38.067,7.141,48.275,9.766c9.846,2.532,16.479,13.625,16.479,13.625     S60.364,30.546,53.942,24.516z" style="fill:#BF4851;"/><polygon points="58.443,15.764 55.754,18.766 59.488,16.781    " style="fill:#9E2F30;"/><polygon points="48.275,9.766 46.442,13.828 46.773,9.423    " style="fill:#9E2F30;"/><polygon points="38.468,8.783 38.468,12.391 37.319,8.914    " style="fill:#9E2F30;"/><polygon points="28.421,10.994 29.317,14.828 26.937,11.625    " style="fill:#9E2F30;"/><polygon points="20.621,15.505 21.942,19.578 19.49,16.446    " style="fill:#9E2F30;"/><polygon points="13.831,22.795 15.442,25.095 13.055,23.945    " style="fill:#9E2F30;"/><polygon points="9.119,31.501 11.629,33.578 8.617,32.801    " style="fill:#9E2F30;"/><polygon points="6.663,41.643 8.879,41.643 6.78,40.449    " style="fill:#9E2F30;"/><polygon points="7.116,49.858 8.129,49.391 6.957,48.941    " style="fill:#9E2F30;"/><polygon points="9.077,56.423 10.123,56.423 9.417,57.222    " style="fill:#9E2F30;"/><polygon points="12.48,62.846 13.055,62.578 12.767,63.277    " style="fill:#9E2F30;"/><path d="M37.754,18.766c0,0,2.188,3.188,4.063,3.688s6.562-0.438,11.125,3.062     c4.562,3.5,8.125,3,10.812-1.125c0,0,1.188,2.813,5.313,2.125c0,0-1.563,8.563,1.375,13.438c2.937,4.875,8.187,8.375,9.375,9.125     c0,0,1.338,0.209,2.236,0.285c0.27,0.023,0.447,0.291,0.352,0.545c-0.173,0.462-0.496,1.129-1.025,1.545c0,0,0.25,3.062-1,4.75     c-1.25,1.687-4,1.625-4,1.625s-3.625-2.375-11.125-1.5c0,0,6.5,1.312,7.688,2.312c1.187,1,1.937,1.75,1.062,3     s-4.625-0.187-5.937-0.75c-1.313-0.562-9.438-2.625-13.063-3.5s-10.375-3-9.562-11.25c0.812-8.25,4.25-15.937,6.25-18.375     c0,0-3.563,1.313-7.875,0.875C39.504,28.203,36.504,23.766,37.754,18.766z" style="opacity:0.2;"/><path d="M38.754,17.766c0,0,2.188,3.188,4.063,3.688s6.562-0.438,11.125,3.062     c4.562,3.5,8.125,3,10.812-1.125c0,0,1.188,2.813,5.313,2.125c0,0-1.563,8.563,1.375,13.438c2.937,4.875,8.187,8.375,9.375,9.125     c0,0,1.338,0.209,2.236,0.285c0.27,0.023,0.447,0.291,0.352,0.545c-0.173,0.462-0.496,1.129-1.025,1.545c0,0,0.25,3.062-1,4.75     c-1.25,1.687-4,1.625-4,1.625s-3.625-2.375-11.125-1.5c0,0,6.5,1.312,7.688,2.312c1.187,1,1.937,1.75,1.062,3     s-4.625-0.187-5.937-0.75c-1.313-0.562-9.438-2.625-13.063-3.5s-10.375-3-9.562-11.25c0.812-8.25,4.25-15.937,6.25-18.375     c0,0-3.563,1.313-7.875,0.875C40.504,27.203,37.504,22.766,38.754,17.766z" style="fill:#FAEC94;"/><path d="M56.285,35.078c0,0,4.469-0.781,7.594,0.156s4.563,3.063,5.531,6.031c0,0-1.906-2.305-2.438-2.325     c-0.531-0.019-3.375,0.575-4.875,0.168C60.598,38.703,58.317,37.578,56.285,35.078z" style="fill:#F5B400;"/><path d="M63.452,37.852c-0.531,0-0.831-0.051-0.988-0.094c-0.566-0.153-1.732-0.564-3.056-1.574     c0.226-0.007,0.458-0.012,0.694-0.012c1.349,0,2.484,0.135,3.374,0.402c0.853,0.256,1.565,0.609,2.175,1.1     C64.996,37.758,64.178,37.852,63.452,37.852z" style="fill:#4D4D4D;"/><path d="M80.898,48.09l2.154,0.274c0.266,0.034,0.438,0.303,0.347,0.556     c-0.201,0.561-0.562,1.381-1.02,1.534c-0.497,0.166-1.811-1.339-1.664-2.241C80.728,48.13,80.816,48.079,80.898,48.09z" style="fill:#4D4D4D;"/></g></g></svg>