<?xml version="1.0" ?><!DOCTYPE svg  PUBLIC '-//W3C//DTD SVG 1.1//EN'  'http://www.w3.org/Graphics/SVG/1.1/DTD/svg11.dtd'><svg id="Layer_1" style="enable-background:new 0 0 90 90;" version="1.1" viewBox="0 0 90 90" xml:space="preserve" xmlns="http://www.w3.org/2000/svg" xmlns:xlink="http://www.w3.org/1999/xlink"><g><g><path d="M63.25,22.125c0,0,0.375-4.562-8.438-8.75C46,9.188,31.5,9,22.625,14.25     S5.812,32.125,7.437,47.875s18.313,21.813,31,23c0,0,21.313-5.708,17.75,11.375c0,0,7.438-13.312-7.125-16.562     c-4.094-1-3.036-3.547,0.188-2.938c0,0-8.685-5.889-4.561-12.632C44.689,50.118,62.583,23.667,63.25,22.125z" style="fill:#9E2F30;"/><path d="M63.25,22.125c0,0,0.375-4.562-8.438-8.75C46,9.188,31.5,9,22.625,14.25     S4.667,29.691,7.437,47.875c2.385,15.653,18.313,21.813,31,23c0,0-14.125-3.75-18.812-12.25S16.5,41.813,20,34.688     c0,0-4,11.187,0,19.25C24,62,29.5,64.75,38.187,68s20.438-0.687,18,14.25c0,0,7.438-13.312-7.125-16.562     C34.5,62.438,29.5,53.502,31.562,43.063c0,0-2.813,16.812,17.687,19.687c0,0-8.685-5.889-4.561-12.632l14.686-28.584     c0,0-3.188-5.596-18.188-3.909C41.187,17.625,56.312,13.375,63.25,22.125z" style="fill:#BF4851;"/><path d="M25.25,24.5c0,0,3.25-1.167,6.75-1.083s3.937,0.708,6.187,0.74c2.25,0.031,3.844,0.094,4.844,0     c1-0.094,4.25-0.456,5.594-0.744c1.344-0.287,7.531-1.287,10.219-0.694c2.688,0.594,5.25,1.438,7.313,3.094     c2.063,1.656,4.406,4.094,5.844,5.25c1.438,1.156,6.438,4.156,11.219,3.781c0,0-0.813,2.125-0.625,3.25s2.906,6.844-5.969,14.719     c0,0,2.625-5.313-0.125-8.063s-9.813-0.562-11.625,0.063s-7.938,4.5-2.563,8s13-0.688,13-0.688s-2.063,6.625-6.75,10.313     c-4.688,3.687-8.75,3.125-8.75,3.125s6.172-0.4,6.063-5.938s-9.625-4.5-9.625-4.5S42.625,54.813,37,43.75     c-5.625-11.062,2.563-14.875,2.563-14.875s-3.938,1.25-7.438,0.75S25.812,26.313,25.25,24.5z" style="opacity:0.2;"/><path d="M26.25,23.5c0,0,3.25-1.167,6.75-1.083s3.938,0.708,6.188,0.74c2.25,0.031,3.844,0.094,4.844,0     c1-0.094,4.25-0.456,5.594-0.744c1.344-0.287,7.531-1.287,10.219-0.694c2.688,0.594,5.25,1.438,7.313,3.094     c2.063,1.656,4.406,4.094,5.844,5.25c1.396,1.123,6.154,3.986,10.808,3.805c0.195-0.008,0.339,0.17,0.276,0.356     c-0.222,0.663-0.629,2.039-0.491,2.87c0.188,1.125,2.906,6.844-5.969,14.719c0,0,2.625-5.313-0.125-8.063     s-9.813-0.562-11.625,0.063s-7.938,4.5-2.563,8s13-0.688,13-0.688s-2.063,6.625-6.75,10.313c-4.688,3.687-8.75,3.125-8.75,3.125     s6.172-0.4,6.063-5.938s-9.625-4.5-9.625-4.5S43.625,53.813,38,42.75c-5.625-11.062,2.563-14.875,2.563-14.875     s-3.938,1.25-7.438,0.75S26.812,25.313,26.25,23.5z" style="fill:#FAEC94;"/><path d="M69.375,31.313c0,0-5.313-7.75-16.063-6.438l1.563,0.563c0,0,0,2,0.938,3S61.625,32,67.75,30.75     L69.375,31.313z" style="fill:#F5B400;"/><path d="M64.427,29.887c-4.267,0-7.27-1.77-7.739-2.27c-0.34-0.363-0.512-1.118-0.579-1.688     c4.786,0.104,8.172,2.158,10.159,3.846C65.656,29.849,65.04,29.887,64.427,29.887z" style="fill:#4D4D4D;"/><path d="M80.51,33.538c0.459,0.078,2.397,0.356,3.298,0.33c0.17-0.005,0.384,0.205,0.338,0.37     c-0.222,0.795-0.662,2.044-0.512,3.04c0.058,0.387-5.008-1.089-3.28-3.667C80.389,33.559,80.449,33.528,80.51,33.538z" style="fill:#4D4D4D;"/></g></g></svg>