<?xml version="1.0" ?><!DOCTYPE svg  PUBLIC '-//W3C//DTD SVG 1.1//EN'  'http://www.w3.org/Graphics/SVG/1.1/DTD/svg11.dtd'><svg id="Layer_1" style="enable-background:new 0 0 92 92;" version="1.1" viewBox="0 0 92 92" xml:space="preserve" xmlns="http://www.w3.org/2000/svg" xmlns:xlink="http://www.w3.org/1999/xlink"><g><g><path d="M55,61.355c0,0-1.688-3.855,0-4.418c1.687-0.563,12.062-2.5,14.187,0s9.75,7.125,9.75,7.125     S77,68.967,71.25,68.296S55.748,64.46,55,61.355z" style="fill:#F5B400;"/><path d="M53.396,51.688c0.023,0.388-0.337,2.618-0.3,3.006c0.162,1.729,0.717,3.323,1.692,4.761     c1.347,1.988,3.059,3.597,5.201,4.687c5.319,2.707,10.883,3.293,16.664,1.795c0.21-0.054,0.421-0.11,0.625-0.183     c0.162-0.058,0.315-0.144,0.723-0.335c-1.882,0.311-3.507,0.553-5.153,0.539c-1.6-0.014-3.208,0.059-4.89-0.334     c0.165-0.235,0.258-0.373,0.357-0.505c1.047-1.397,0.973-3.027-0.262-4.253c-0.426-0.423-0.946-0.783-1.483-1.054     c-0.617-0.312-1.278-0.574-1.933-0.811c-0.277-0.1-1.681-0.605-2.12-0.708c1.003-1.151,2.263-2.269,3.175-3.374     c0.888-1.075,1.63-2.25,2.538-3.414c0.261,0.052,1.715,0.496,1.784,0.522c2.462,0.718,4.734,2.056,6.657,3.778     c2.403,2.153,3.811,4.844,4.32,8.022c0.11,0.687-0.011,1.245-0.512,1.789c-2.032,2.208-4.31,4.074-7.039,5.363     c-1.595,0.754-3.269,1.219-5.018,1.408c-1.717,0.185-3.408-0.015-5.05-0.515c-2.717-0.827-5.119-2.22-7.154-4.212     c-2.451-2.4-3.711-5.353-3.944-8.75C52.145,57.078,52.681,53.425,53.396,51.688z" style="opacity:0.2;"/><path d="M17.458,64.292c0,0-4.833-1.625-4.625-2.5c0.208-0.875,6.542-11.125,14.5-10.25     s10.833,2.504,10.083,4.668C36.667,58.375,28.75,65.917,17.458,64.292z" style="fill:#F5B400;"/><path d="M37.785,72.43c2.236-2.938,3.766-6.696,4.721-10.209c1.115-4.102,1.646-8.297,1.883-12.536     c0.198-3.537,0.141-7.073-0.05-10.605c-0.169-3.139-0.46-6.269-0.918-9.381c-0.35-2.374-1.553-9.032-1.553-9.277     c0.319,0,0.678,0.128,0.944,0.245c2.75,1.521,5.333,1.68,8.396,1.146c0.417-0.126,1.794-0.45,2.211-0.577     c0.03-0.009,0.071,0.02,0.146,0.043c0.009,0.107-2.227,6.57-2.871,8.744c-0.141,0.476-0.846,3.248-0.908,3.494     c-0.937,3.728-1.664,7.498-2.164,11.308c-0.506,3.859-0.785,7.735-0.57,11.628c0.181,3.278,0.639,6.514,1.743,9.63     c0.468,1.321,1.028,2.596,1.746,3.8c0.154,0.259,0.877,1.044,1.043,1.284C46.859,76.504,37.506,72.796,37.785,72.43z" style="fill:#F5B400;"/><path d="M35.33,73.969c1.213-0.721,0.799-0.449,2.734-1.906c5.852-1.914,12.816-1.682,12.981-1.442     c1.165,0.109,2.295,0.196,3.421,0.324c2.042,0.232,4.062,0.584,6.002,1.287c0.654,0.237,1.291,0.529,1.918,0.833     c0.351,0.17,0.682,0.393,0.994,0.629c2.041,1.545,2.286,3.641,0.576,5.527c-0.608,0.671-1.352,1.237-2.095,1.764     c-1.324,0.937-2.796,1.618-4.3,2.211c-4.366,1.722-8.861,2.961-13.554,3.328c-3.937,0.308-7.854,0.118-11.702-0.868     c-0.59-0.151-1.171-0.35-1.737-0.575c-0.444-0.176-0.879-0.393-1.284-0.646c-1.696-1.056-2.128-2.288-1.385-4.116     c0.277-0.68,0.653-1.338,1.085-1.932C30.346,76.521,32.899,74.756,35.33,73.969z" style="fill:#9E2F30;"/><path d="M53.396,50.688c0.023,0.388-0.337,2.618-0.3,3.006c0.162,1.729,0.717,3.323,1.692,4.761     c1.347,1.988,3.059,3.597,5.201,4.687c5.319,2.707,10.883,3.293,16.664,1.795c0.21-0.054,0.421-0.11,0.625-0.183     c0.162-0.058,0.315-0.144,0.723-0.335c-1.882,0.311-3.507,0.553-5.153,0.539c-1.6-0.014-3.208,0.059-4.89-0.334     c0.165-0.235,0.258-0.373,0.357-0.505c1.047-1.397,0.973-3.027-0.262-4.253c-0.426-0.423-0.946-0.783-1.483-1.054     c-0.617-0.312-1.278-0.574-1.933-0.811c-0.277-0.1-1.681-0.605-2.12-0.708c1.003-1.151,2.263-2.269,3.175-3.374     c0.888-1.075,1.63-2.25,2.538-3.414c0.261,0.052,1.715,0.496,1.784,0.522c2.462,0.718,4.734,2.056,6.657,3.778     c2.403,2.153,3.811,4.844,4.32,8.022c0.11,0.687-0.011,1.245-0.512,1.789c-2.032,2.208-4.31,4.074-7.039,5.363     c-1.595,0.754-3.269,1.219-5.018,1.408c-1.717,0.185-3.408-0.015-5.05-0.515c-2.717-0.827-5.119-2.22-7.154-4.212     c-2.451-2.4-3.711-5.353-3.944-8.75C52.145,56.078,52.681,52.425,53.396,50.688z" style="fill:#FFDF74;"/><path d="M15.438,62.324c-0.011,0.243,0.07,0.389,0.333,0.467c1.347,0.399,2.729,0.611,4.12,0.718     c4.226,0.324,8.256-0.432,12.075-2.287c2.125-1.032,3.875-2.515,5.282-4.399c1.315-1.76,2.063-3.732,2.078-5.953     c0.001-0.131,0.012-0.262,0.024-0.392c0.004-0.041,0.03-0.081,0.091-0.238c0.106,0.232,0.205,0.381,0.245,0.545     c0.602,2.502,0.66,5.012,0.047,7.52c-0.584,2.391-1.75,4.467-3.525,6.171c-2.618,2.513-5.683,4.158-9.313,4.691     c-1.897,0.278-3.755,0.088-5.568-0.45c-3.889-1.156-6.977-3.519-9.623-6.525c-0.359-0.408-0.371-0.852-0.302-1.345     c0.475-3.386,1.998-6.202,4.595-8.425c2.063-1.766,4.474-2.839,7.113-3.549c0.706,0.689,1.179,1.53,1.787,2.258     c0.616,0.737,1.209,1.494,1.835,2.221c0.624,0.724,1.277,1.422,1.934,2.15c-0.259,0.345-0.618,0.352-0.933,0.433     c-0.98,0.252-1.91,0.616-2.739,1.206c-0.653,0.465-1.173,1.04-1.44,1.816c-0.349,1.018-0.276,1.975,0.394,2.848     c0.151,0.197,0.314,0.386,0.533,0.655c-0.495,0.093-0.875,0.2-1.26,0.23c-2.532,0.194-5.059,0.202-7.572-0.234     c-0.08-0.014-0.152-0.08-0.234-0.116c-0.188,0.018-0.369,0.029-0.549,0.04c0.01,0.044,0.02,0.088,0.03,0.132     C15.078,62.451,15.258,62.388,15.438,62.324z" style="opacity:0.2;"/><path d="M77.073,22.624c-0.72-0.167-1.289-0.244-1.817-0.433c-1.217-0.436-2.055-1.756-1.947-2.969     c0.139-1.566,1.727-2.732,3.292-2.419c2.099,0.42,3.332,2.766,2.667,4.501c-0.32,0.834-0.759,1.571-1.37,2.206     c-1.311,1.362-2.914,2.208-4.758,2.586c-3.04,0.623-5.993,0.276-8.866-0.854c-1.796-0.707-3.467-1.645-5.048-2.75     c-0.5-0.35-1.006-0.698-1.538-0.995c-1.116-0.623-2.301-0.795-3.54-0.413c-0.541,0.167-1.078,0.349-1.615,0.532     c-1.624,0.553-3.281,0.899-5.008,0.839c-1.695-0.059-3.294-0.462-4.684-1.456c-1.645-1.177-3.45-1.419-5.362-1     c-0.889,0.195-1.769,0.484-2.609,0.836c-4.057,1.701-8.267,2.465-12.661,2.156c-1.622-0.114-3.195-0.464-4.704-1.072     c-0.857-0.345-1.657-0.799-2.28-1.498c-0.985-1.105-1.302-2.36-0.706-3.756c0.488-1.142,1.585-1.752,2.859-1.657     c1.335,0.099,2.423,0.905,2.77,2.052c0.331,1.091-0.176,2.271-1.271,2.877c-0.376,0.208-0.793,0.342-1.3,0.555     c0.245,0.127,0.404,0.242,0.583,0.297c5.389,1.663,10.436,1.13,15.002-2.377c0.934-0.717,1.818-1.501,2.726-2.252     c0.673-0.556,1.336-1.125,2.027-1.659c1.594-1.232,3.403-1.51,5.333-1.102c0.723,0.153,1.427,0.4,2.139,0.609     c0.628,0.185,1.253,0.379,1.881,0.564c1.63,0.481,3.264,0.546,4.904,0.049c0.208-0.063,0.423-0.107,0.636-0.157     c1.535-0.361,2.941-0.076,4.226,0.837c1.012,0.719,1.836,1.629,2.5,2.659c2.452,3.805,6.086,5.773,10.373,6.71     c1.462,0.32,2.95,0.317,4.408-0.114c0.938-0.277,1.769-0.742,2.455-1.446C76.879,22.999,76.941,22.838,77.073,22.624z" style="fill:#9E2F30;"/><path d="M54.023,10.226c-0.045,0.389-0.049,0.789-0.141,1.167c-0.49,2.015-1.584,3.512-3.714,3.958     c-2.201,0.46-4.074-0.223-5.497-1.947c-0.922-1.118-1.128-2.431-0.632-3.825c0.869-2.445,3.869-4.221,6.233-3.828     c2.138,0.356,3.53,1.787,3.707,3.949c0.014,0.173,0.002,0.349,0.002,0.524C53.995,10.224,54.009,10.225,54.023,10.226z" style="fill:#BF4851;"/><path d="M38.167,47.625c0.792,2.794-0.388,6.708-2.217,8.585c-0.746-0.165-1.783-0.877-2.527-1.412     c-0.245-0.063-1.166-0.762-1.378-0.909c-2.165-1.495-4.3-3.246-5.989-5.277c-0.306-0.368-0.588-0.59-0.857-0.987     c-0.066-0.098-0.538-0.577-0.568-0.697C27.573,45.975,35.593,46.266,38.167,47.625z" style="fill:#F5B400;"/><path d="M72.271,26.231c0.246,0.062,0.887,4.003,0.897,4.245c0.057,1.436,0.207,2.876,0.156,4.308     c-0.229,6.476-2.448,12.252-6.292,17.432c-2.277,3.068-4.979,5.715-7.992,8.051c-0.169,0.131-1.484,0.944-1.701,1.087     c-0.764-0.405-1.473-1.463-1.967-2.093c0.681-0.3,1.794-0.858,2.071-1.027c3.535-2.153,6.621-4.769,9.207-8.004     c3.081-3.855,5.101-8.195,5.924-13.074c0.386-2.29,0.439-4.596,0.314-6.91c-0.005-0.083-0.667-3.914-0.695-3.996L72.271,26.231z" style="fill:#58595B;"/><path d="M19.161,22.38c-0.017,1.393-0.73,7.475-0.638,8.861c0.432,6.505,2.94,12.149,7.225,17.025     c2.35,2.674,5.046,4.941,8.092,6.788c0.294,0.178,1.826,0.971,2.11,1.155c-0.453,0.903-1.106,1.459-2.219,2.253     c-0.118-0.053-1.027-1.093-1.154-1.191c-4.766-3.667-8.739-8.012-11.42-13.448c-2.493-5.054-3.456-10.396-2.973-16.005     c0.026-0.299,0.597-5.313,0.993-5.418L19.161,22.38z" style="fill:#58595B;"/><path d="M72.583,26.231c0.458-0.502,3.433,7.537,3.492,7.647c0.203,0.383,0.366,0.79,0.517,1.197     c1.824,4.916,3.24,9.944,4.119,15.117c0.49,2.886,0.733,5.796,0.788,8.722c0.22,0.992-0.37,4.427-0.533,4.832     c0.022-0.919-0.283-2.432-0.367-2.68c-0.07-0.206-0.195-0.668-0.279-0.869c-0.1-0.241-0.115-0.362-0.23-0.597     c-0.115-0.235-0.116-0.337-0.248-0.563c-0.132-0.226-0.278-0.608-0.424-0.825c-0.121-0.181-0.268-0.496-0.401-0.668     c-0.16-0.207-0.254-0.416-0.422-0.616c-0.168-0.2-0.189-0.278-0.405-0.527c0.045-0.268,0.294-2.089,0.351-2.381     c0.243-2.833,0.075-5.986-0.197-8.681c-0.37-3.655-1.221-7.216-2.28-10.728C75.966,34.286,72.583,26.231,72.583,26.231z" style="fill:#58595B;"/><path d="M18.741,22.313c-0.086,0.467-3.348,8.958-3.482,9.411c-0.818,2.766-1.487,5.564-1.936,8.415     c-0.43,2.73-0.578,5.472-0.367,8.226c0.07,0.907,0.076,4.047,0.213,4.938c-2.541,3.204-1.848,4.502-2.8,7.177     c-0.215-0.589-0.44-4.503-0.437-5.017c0.021-4.08,0.588-8.097,1.469-12.069c0.899-4.053,2.082-8.025,3.589-11.896     c0.153-0.394,3.417-8.806,3.608-9.185H18.741z" style="fill:#58595B;"/><path d="M71.833,26.146c0.215,1.867-0.312,6.939-0.845,8.696c-1.05,3.463-2.967,6.38-5.626,8.815     c-2.638,2.416-7.474,5.213-10.797,6.49c-0.107,0.041-0.867,0.522-1.169,0.54c0.679-0.393,3.605-2.277,4.127-2.583     c3.029-1.775,5.769-3.909,8.098-6.548c3.006-3.406,5.036-7.294,5.803-11.803C71.443,29.638,71.783,26.256,71.833,26.146z" style="fill:#58595B;"/><path d="M38.167,47.625c-2.544-0.954-7.544-3.641-9.765-5.218c-3.162-2.245-5.662-5.049-7.22-8.631     c-0.914-2.101-1.46-4.294-1.518-6.595c-0.006-0.217-0.157-4.391-0.134-4.607c0.007-0.062,0.058,0.014,0.132,0.032     c0.071,0.353,0.347,4.311,0.406,4.597c0.838,4.017,2.627,7.566,5.27,10.694c2.539,3.005,5.596,5.372,8.991,7.329     C34.765,45.476,37.921,47.097,38.167,47.625L38.167,47.625z" style="fill:#58595B;"/><path d="M35.57,46.106c0.06-0.002,0.12-0.004,0.18-0.005c-0.024-0.01-0.051-0.031-0.072-0.026     c-0.03,0.007-0.057,0.032-0.087,0.051C35.588,46.127,35.57,46.106,35.57,46.106z"/><path d="M14.438,61.324c-0.18,0.064-0.36,0.128-0.54,0.191c-0.01-0.044-0.02-0.088-0.03-0.132     c0.181-0.011,0.362-0.023,0.549-0.04C14.425,61.336,14.438,61.324,14.438,61.324z" style="fill:#FFFFFF;"/><path d="M35.33,73.969c1.323,2.042,3.343,2.801,5.542,3.197c2.302,0.415,4.613,0.262,6.915-0.04     c0.279-0.037,0.614-0.024,0.781-0.271c-1.665-0.223-3.355-0.41-5.031-0.686c-1.338-0.22-2.635-0.617-3.827-1.292     c-0.735-0.415-1.363-0.939-1.737-1.724c-0.185-0.389-0.187-0.724,0.092-1.091c5.852-1.914,12.816-1.682,12.981-1.442     c1.165,0.109,2.295,0.196,3.421,0.324c2.042,0.232,4.062,0.584,6.002,1.287c0.654,0.237,1.291,0.529,1.918,0.833     c0.351,0.17,0.682,0.393,0.994,0.629c2.041,1.545,2.286,3.641,0.576,5.527c-0.608,0.671-1.352,1.237-2.095,1.764     c-1.324,0.937-2.796,1.618-4.3,2.211c-4.366,1.722-8.861,2.961-13.554,3.328c-3.937,0.308-7.854,0.118-11.702-0.868     c-0.59-0.151-1.171-0.35-1.737-0.575c-0.444-0.176-0.879-0.393-1.284-0.646c-1.696-1.056-2.128-2.288-1.385-4.116     c0.277-0.68,0.653-1.338,1.085-1.932C30.346,76.521,32.899,74.756,35.33,73.969z" style="fill:#BF4851;"/><path d="M38.785,73.43c2.236-2.938,3.766-6.696,4.721-10.209c1.115-4.102,1.646-8.297,1.883-12.536     c0.198-3.537,0.141-7.073-0.05-10.605c-0.169-3.139-0.46-6.269-0.918-9.381c-0.35-2.374-1.553-9.032-1.553-9.277     c0.319,0,0.678,0.128,0.944,0.245c2.75,1.521,5.333,1.68,8.396,1.146c0.417-0.126,1.794-0.45,2.211-0.577     c0.03-0.009,0.071,0.02,0.146,0.043c0.009,0.107-2.227,6.57-2.871,8.744c-0.141,0.476-0.376,0.73-0.851,0.867     c-0.961,0.276-1.991,0.402-3.472,0.318c0.959,1.03,2.2,1.224,3.335,1.536c0.246,0.268,0.142,0.527,0.08,0.773     c-0.937,3.728-1.664,7.498-2.164,11.308c-0.506,3.859-0.785,7.735-0.57,11.628c0.181,3.278,0.639,6.514,1.743,9.63     c0.468,1.321,1.028,2.596,1.746,3.8c0.154,0.259,0.877,1.044,1.043,1.284C47.859,77.504,38.506,73.796,38.785,73.43z" style="opacity:0.2;"/><path d="M37.785,72.43c2.236-2.938,3.766-6.696,4.721-10.209c1.115-4.102,1.646-8.297,1.883-12.536     c0.198-3.537,0.141-7.073-0.05-10.605c-0.169-3.139-0.46-6.269-0.918-9.381c-0.35-2.374-1.553-9.032-1.553-9.277     c0.319,0,0.678,0.128,0.944,0.245c2.75,1.521,5.333,1.68,8.396,1.146c0.417-0.126,1.794-0.45,2.211-0.577     c0.03-0.009,0.071,0.02,0.146,0.043c0.009,0.107-2.227,6.57-2.871,8.744c-0.141,0.476-0.376,0.73-0.851,0.867     c-0.961,0.276-1.991,0.402-3.472,0.318c0.959,1.03,2.2,1.224,3.335,1.536c0.246,0.268,0.142,0.527,0.08,0.773     c-0.937,3.728-1.664,7.498-2.164,11.308c-0.506,3.859-0.785,7.735-0.57,11.628c0.181,3.278,0.639,6.514,1.743,9.63     c0.468,1.321,1.028,2.596,1.746,3.8c0.154,0.259,0.877,1.044,1.043,1.284C46.859,76.504,37.506,72.796,37.785,72.43z" style="fill:#FFDF74;"/><path d="M14.771,61.791c1.347,0.399,2.729,0.611,4.12,0.718c4.226,0.324,8.256-0.432,12.075-2.287     c2.125-1.032,3.875-2.515,5.282-4.399c1.315-1.76,2.063-3.732,2.078-5.953c0.001-0.131,0.012-0.262,0.024-0.392     c0.004-0.041-0.246-1.697-0.184-1.854c0.106,0.232,0.481,1.998,0.52,2.162c0.602,2.502,0.66,5.012,0.047,7.52     c-0.584,2.391-1.75,4.467-3.525,6.171c-2.618,2.513-5.683,4.158-9.313,4.691c-1.897,0.278-3.755,0.088-5.568-0.45     c-3.889-1.156-6.977-3.519-9.623-6.525c-0.359-0.408-0.371-0.852-0.302-1.345c0.475-3.386,1.998-6.202,4.595-8.425     c2.063-1.766,5.537-3.356,8.176-4.066c0.526,0.79,1.218,1.805,1.827,2.541c0.616,0.737,1.165,1.381,1.792,2.108     c0.624,0.724,1.571,1.494,2.228,2.222c-0.604,0.245-1.97,0.627-2.286,0.708c-0.98,0.252-1.91,0.616-2.739,1.206     c-0.653,0.465-1.173,1.04-1.44,1.816c-0.349,1.018-0.276,1.975,0.394,2.848c0.151,0.197,0.314,0.386,0.533,0.655     c-0.495,0.093-0.875,0.2-1.26,0.23c-2.532,0.194-8.175-0.32-8.355-0.309C13.878,61.427,14.508,61.713,14.771,61.791z" style="fill:#FFDF74;"/><path d="M66.715,50.15c-0.151,0.286-0.754,0.907-0.908,1.095c-0.632,0.774-1.692,1.872-2.383,2.59     c-1.331,1.383-3.136,2.535-4.703,3.641c-0.395,0.279-2.774,1.635-3.349,1.785c-2.642-3.408-2.451-5.761-1.976-8.575     c0.289-0.339,1.449-0.607,1.854-0.75c1.198-0.423,2.474-0.388,3.735-0.459c1.826-0.103,3.654-0.096,5.465,0.224     C64.611,49.731,66.454,50.08,66.715,50.15z" style="fill:#F5B400;"/><path d="M54.023,9.892c-0.045,0.389-0.049,0.789-0.141,1.167c-0.49,2.015-1.584,3.512-3.714,3.958     c-2.201,0.46-4.074-0.223-5.497-1.947c-0.922-1.118-1.128-2.431-0.632-3.825c0.869-2.445,3.869-4.221,6.233-3.828     c2.138,0.356,3.53,1.787,3.707,3.949c0.014,0.173,0.002,0.349,0.002,0.524C53.995,9.89,54.009,9.891,54.023,9.892z" style="fill:#9E2F30;"/></g></g></svg>