<?xml version="1.0" ?><!DOCTYPE svg  PUBLIC '-//W3C//DTD SVG 1.1//EN'  'http://www.w3.org/Graphics/SVG/1.1/DTD/svg11.dtd'><svg id="Layer_1" style="enable-background:new 0 0 92 92;" version="1.1" viewBox="0 0 92 92" xml:space="preserve" xmlns="http://www.w3.org/2000/svg" xmlns:xlink="http://www.w3.org/1999/xlink"><g><g><path d="M51.369,20.771c0,0-13.796-0.078-21.136,10.665s-6.524,23.655,2.039,32.219     s26.233,10.874,36.835,1.631c0,0,2.583-5.029-2.039-2.718c0,0-5.029,6.388-13.592,4.078s-14.272-17.113,1.359-21.197     C54.835,45.448,66.117,21.111,51.369,20.771z" style="fill:#FFDF74;"/><path d="M50.553,21.587c0,0-4.638,8.461-4.485,12.947c0.153,4.485,1.529,8.563,5.607,10.653     c4.078,2.09,8.614,0.663,9.583-0.306c0.968-0.968,4.434-3.262,7.697-4.18c0,0-1.325-1.121-8.308,1.529     c0,0,4.078-4.231,10.704-4.078C71.35,38.153,71.706,21.536,50.553,21.587z" style="opacity:0.2;"/><path d="M51.369,20.771c0,0-4.638,8.461-4.485,12.947c0.153,4.485,1.529,8.563,5.607,10.653     c4.078,2.09,8.614,0.663,9.583-0.306c0.968-0.968,4.434-3.262,7.697-4.18c0,0-1.325-1.121-8.308,1.529     c0,0,4.078-4.231,10.704-4.078C72.165,37.337,72.522,20.72,51.369,20.771z" style="fill:#FAEC94;"/><path d="M35.465,26.048c0,0-2.65-3.034-11.349-0.587S12.902,37.183,11.814,40.508     c-1.087,3.324-3.465,11.725-10.533,8.533c0,0,6.252,3.928,9.379,0c3.113-3.911,6.421-13.818,14.968-6.534     C25.628,42.507,34.989,28.809,35.465,26.048z" style="fill:#BF4851;"/><path d="M44.913,41.704c0,0,0.34,3.942,3.602,5.301c3.262,1.359,8.427,4.078,7.204,11.146     c0,0-2.65-3.806-8.839-3.999C40.553,53.953,41.039,43.742,44.913,41.704z" style="fill:#BF4851;"/><path d="M67.068,62.568c0,0-2.583-14.951,12.505-24.262c0,0-5.369,3.874-3.806,10.806     c1.563,6.932-2.531,9.039-2.531,9.039l5.589-2.786c0,0,6.32,7.544,11.893-2.107c0,0-4.078,12.981-21.612,12.029     C69.107,65.286,71.553,60.121,67.068,62.568z" style="fill:#BF4851;"/><path d="M58.369,32.325c0,0,5.029-1.291,7.884-0.34c0,0-2.101-4.581-4.757-4.553     C58.838,27.46,58.281,30.418,58.369,32.325z" style="fill:#F5B400;"/><path d="M59.388,31.102c0.097-0.826,0.348-1.654,0.832-2.167c0.329-0.348,0.749-0.519,1.285-0.525     c1.033,0,2.094,1.151,2.862,2.267c-0.243-0.014-0.494-0.02-0.753-0.02C62.045,30.657,60.451,30.898,59.388,31.102z" style="fill:#4D4D4D;"/><path d="M68.011,62.125c0,0,0.076-12.083,5.683-16.677c0,0-4.87,7.161-4.168,16.677H68.011z" style="fill:#9E2F30;"/><path d="M69.515,64.301c0,0,6.728,0.755,14.17-3.395c0,0-8.971,3.089-13.864,2.171L69.515,64.301z" style="fill:#9E2F30;"/><path d="M44.913,41.704c0,0-1.91,6.35,1.152,7.338c3.062,0.988,5.644,1.565,6.732,3.332     c-2.627-1.959-4.519-1.597-7.884-2.447C41.744,49.127,44.913,41.704,44.913,41.704z" style="fill:#9E2F30;"/><path d="M34.072,29.165c0,0-5.47-1.842-11.315,1.101c0,0,9.405-0.862,10.207,0.836L34.072,29.165z" style="fill:#9E2F30;"/><path d="M30.818,34.602c0,0-4.799-3.765-11.731-1.492c0,0,7.112-0.459,10.67,3.157L30.818,34.602z" style="fill:#9E2F30;"/><path d="M27.936,39.061c0,0-4.398-3.882-9.562-2.421c0,0,4.379-0.366,8.901,3.419L27.936,39.061z" style="fill:#9E2F30;"/></g></g></svg>