<?xml version="1.0" ?><!DOCTYPE svg  PUBLIC '-//W3C//DTD SVG 1.1//EN'  'http://www.w3.org/Graphics/SVG/1.1/DTD/svg11.dtd'><svg id="Layer_1" style="enable-background:new 0 0 90 90;" version="1.1" viewBox="0 0 90 90" xml:space="preserve" xmlns="http://www.w3.org/2000/svg" xmlns:xlink="http://www.w3.org/1999/xlink"><g><g><path d="M46.126,47.08c0,0-3.74,1.389-5.954,1.18s-3.366-0.508-3.702-1.02     c-0.335-0.513-2.647-1.26-2.642-2.749c0,0-3.338-0.887-3.042-1.712c0,0-2.017,0.02-1.988-0.415c0,0-3.148,0.073-3.765-0.645     c0,0-1.357,0.013-1.779-0.436c0,0-3.386-0.434-3.146-1.028c0,0-0.659-0.307-1.332-1.364l-2.513-0.616c0,0-1.42,0.843-2.007,0.653     l-2.799-0.906c0,0-1.187-0.46-1.49-1.06c-0.303-0.6-1.234-2.495-1.234-2.495s-1.214-1.74-1.402-2.34     c-0.188-0.601-0.581-3.356-0.581-3.356s0.021-2.895-0.006-4.177c-0.027-1.282,0.499-4.239,0.499-4.239s0.5-2.452,1.333-3.494     c0.833-1.042,4.393-4.819,4.393-4.819s0.615-1.265,1.492-1.666s5.506-2.516,5.506-2.516s1.274-1.266,2.684-1.501     c1.41-0.235,7.054-0.34,7.054-0.34s1.091-0.31,2.161-0.186c1.07,0.124-0.318,1.919-0.318,1.919s-0.97,0.101-1.843,0.112     s-6.671,0.835-6.671,0.835s-1.586,0.355-2.322,0.422c-0.735,0.066-4.027,3.352-4.027,3.352s-1.762,1.129-2.36,1.349     c-0.598,0.22-1.372,4.65-1.372,4.65s-0.884,2.237-1.284,2.966c-0.4,0.729-0.262,2.639-0.262,2.639s-0.023,1.283-0.393,2.478     s1.384,2.521,1.384,2.521s0.927,1.183,1.18,1.825c0.253,0.642,1.813,0.765,1.813,0.765s1.192,0.204,1.524,0.561     c0.333,0.357,2.449,1.056,2.449,1.056s1.559-0.01,2.112,0.155s1.152,0.312,1.152,0.312s3.045-0.282,5.113,0.088     s8.128-0.96,9.984-0.461s5.846,0.289,7.788,1.102c1.942,0.813,3.308,1.766,4.083,2.383s0.741-0.015,3.238,2.676     C52.837,39.538,51.043,45.18,46.126,47.08z" style="fill:#F5B400;"/><path d="M56.957,78.657c-1.17-0.406-2.336-0.828-3.513-1.215c-2.35-0.773-4.722-1.467-7.177-1.825     c-1.258-0.184-2.473-0.139-3.722,0.261c-2.527,0.81-5.105,0.849-7.663,0.059c-0.704-0.217-1.334-0.572-1.838-1.132     c-0.242-0.269-0.255-0.493-0.042-0.798c2.026-2.904,4.77-4.569,8.34-4.453c4.585,0.149,8.596,1.885,11.955,5.002     c1.337,1.241,2.506,2.663,3.752,4.003C57.018,78.591,56.987,78.624,56.957,78.657z" style="fill:#BF4851;"/><path d="M45.516,34.479c-5.582,0.561-9.695,3.946-11.379,9.413c-0.146,0.475-0.37,0.765-0.822,0.975     c-1.225,0.568-2.405,1.235-3.644,1.768c-0.73,0.314-1.538,0.445-2.31,0.663c-2.416,0.685-4.786,1.498-6.9,2.889     c-0.83,0.546-1.57,1.229-2.422,1.906c-0.776-0.639-1.649-1.356-2.608-2.145c1.016-0.653,1.958-1.315,2.952-1.885     c2.323-1.331,4.786-2.294,7.463-2.634c0.422-0.054,0.849-0.124,1.27-0.103c0.539,0.027,0.951-0.161,1.354-0.498     c0.64-0.537,1.322-1.023,1.969-1.55c0.152-0.124,0.286-0.313,0.347-0.499c1.595-4.854,4.942-7.612,9.977-8.347     C42.351,34.199,43.94,34.242,45.516,34.479z" style="fill:#9E2F30;"/><path d="M89.91,40.151c-1.012-0.643-1.992-1.295-3-1.901c-2.06-1.238-4.18-2.353-6.531-2.947     c-0.949-0.24-1.92-0.388-2.882-0.135c-0.455,0.12-0.865,0.41-1.301,0.61c-0.137,0.063-0.322,0.161-0.435,0.117     c-0.969-0.381-1.98-0.698-2.875-1.215c-1.217-0.703-1.285-1.753-0.289-2.742c1.093-1.085,2.479-1.504,3.966-1.597     c3.182-0.2,5.879,1.002,8.265,2.997c2.192,1.833,3.779,4.137,5.051,6.673C89.898,40.046,89.898,40.091,89.91,40.151z" style="fill:#BF4851;"/><path d="M51.932,36.965c-0.679-0.825-1.333-1.62-2.055-2.497c6.303-3.748,12.997-4.386,20.072-2.991     c-0.186,0.614-0.356,1.174-0.525,1.734c-0.166,0.549-0.333,1.097-0.489,1.611c-1.723-0.116-3.4-0.267-5.081-0.334     c-2.923-0.115-5.835-0.029-8.679,0.766C53.994,35.583,52.889,36.07,51.932,36.965z" style="fill:#9E2F30;"/><path d="M14.596,47.623c-1.023-0.782-2.059-1.573-3.218-2.459c0.662-0.318,1.22-0.656,1.824-0.864     c2.074-0.717,4.241-0.9,6.413-1.007c1.244-0.061,2.491-0.044,3.737-0.071c0.128-0.003,0.301-0.017,0.375-0.097     c0.572-0.619,1.242-1.137,1.627-1.938c1.368-2.848,3.299-5.196,6.165-6.669c1.901-0.977,4.303-1.429,6.209-1.142     c-0.676,0.222-1.293,0.401-1.892,0.626c-2.187,0.824-4.119,2.013-5.501,3.955c-0.937,1.317-1.49,2.779-1.537,4.406     c-0.008,0.284-0.113,0.389-0.363,0.472c-1.613,0.532-3.208,1.127-4.838,1.601c-0.911,0.265-1.882,0.313-2.819,0.499     c-1.737,0.345-3.405,0.894-4.928,1.82C15.425,47.014,15.03,47.321,14.596,47.623z" style="fill:#9E2F30;"/><path d="M30.624,71.503c-1.222,1.489-1.463,1.927-1.561,2.902c-0.866-0.406-1.72-0.781-2.55-1.202     c-1.981-1.004-3.898-2.11-5.51-3.67c-0.637-0.617-1.18-1.302-1.501-2.146c-0.107-0.282-0.085-0.461,0.188-0.644     c1.187-0.799,2.442-1.401,3.896-1.519c0.384-0.031,0.635,0.08,0.906,0.36c1.637,1.689,3.292,3.361,4.961,5.019     C29.793,70.939,30.215,71.192,30.624,71.503z" style="fill:#9E2F30;"/><path d="M51.673,83.754c-3.742,0.624-7.474,0.769-11.167-0.24c-2.647-0.724-4.92-2.016-6.361-4.454     c-0.396-0.671-0.668-1.415-0.943-2.164c0.829,0.627,1.723,1.031,2.712,1.239c1.389,0.292,2.777,0.234,4.17,0.039     c0.17-0.024,0.444,0.04,0.528,0.161c1.668,2.426,3.98,3.945,6.774,4.715c1.206,0.332,2.472,0.445,3.712,0.653     C51.287,83.733,51.481,83.737,51.673,83.754z" style="fill:#9E2F30;"/><path d="M6.94,64.552c0.121-1.249,0.223-2.5,0.367-3.746c0.358-3.106,0.806-6.198,1.633-9.221     c0.425-1.553,0.903-3.093,1.834-4.433c0.295-0.425,0.692-0.779,1.051-1.176c0.895,0.787,1.703,1.496,2.524,2.218     C11.281,53.39,8.354,58.625,6.94,64.552z" style="fill:#9E2F30;"/><path d="M25.465,54.32c-0.865,2.725-1.285,5.516-1.753,8.297c-0.049,0.289-0.154,0.442-0.459,0.512     c-1.293,0.294-2.58,0.343-3.882,0.045c-0.407-0.093-0.548-0.303-0.444-0.673c0.255-0.903,0.444-1.837,0.818-2.69     c0.558-1.275,1.253-2.491,1.888-3.733c0.622-1.218,1.684-1.687,2.98-1.755C24.894,54.308,25.178,54.32,25.465,54.32z" style="fill:#9E2F30;"/><path d="M18.283,52.744c-3.848,4.324-6.687,9.112-7.563,14.896c0.165-4.094,0.496-8.16,1.783-12.083     c0.428-1.304,0.986-2.549,1.852-3.632c0.321-0.402,0.666-0.785,0.999-1.176C16.417,51.473,17.34,52.102,18.283,52.744z" style="fill:#9E2F30;"/><path d="M20.109,40.255c1.327-3.614,4.198-5.353,7.636-6.417c-1.283,0.845-2.481,1.785-3.355,3.074     c-0.88,1.299-1.32,2.72-1.135,4.371c-0.856,0.089-1.709,0.258-2.562,0.253c-3.038-0.017-5.958,0.641-8.858,1.44     c-0.283,0.078-0.454,0.028-0.594-0.23c-0.129-0.238-0.293-0.458-0.478-0.743C13.668,40.25,16.873,40.251,20.109,40.255z" style="fill:#9E2F30;"/><path d="M71.523,36.046c1.071,0.466,2.088,0.94,3.131,1.348c0.488,0.191,1.12,0.128,1.514,0.416     c0.392,0.287,0.529,0.898,0.842,1.318c1.301,1.746,3.137,2.601,5.217,2.95c1.132,0.19,2.291,0.216,3.492,0.321     c-0.583,0.13-1.14,0.274-1.705,0.376c-2.238,0.403-4.472,0.468-6.671-0.22C74.119,41.547,72.356,39.226,71.523,36.046z" style="fill:#9E2F30;"/><path d="M23.956,52.172c0.559-0.565,1.005-1.075,1.511-1.518c1.856-1.629,4.011-2.708,6.377-3.381     c0.131-0.037,0.325-0.056,0.421,0.013c0.799,0.571,1.581,1.164,2.447,1.809c-0.242,0.132-0.383,0.205-0.521,0.284     c-1.891,1.088-3.781,2.179-5.676,3.26c-0.132,0.075-0.314,0.12-0.462,0.1C26.744,52.568,25.438,52.38,23.956,52.172z" style="fill:#9E2F30;"/><path d="M40.172,10.766c-0.331-0.219-0.572-0.395-0.828-0.545c-1.254-0.74-2.508-1.482-3.774-2.203     c-0.287-0.163-0.612-0.277-0.933-0.356c-0.53-0.129-0.86-0.118-0.805,0.609c0.024,0.32-0.045,0.679-0.176,0.973     c-0.32,0.717-0.121,1.262,0.442,1.734c0.124,0.104,0.237,0.219,0.39,0.361c-1.773-0.545-3.235-2.198-2.892-4.359     c0.043-0.269,0.128-0.532,0.172-0.801c0.097-0.588,0.412-0.857,1.028-0.912c2.165-0.193,4.123,0.192,5.648,1.882     C39.351,8.154,39.85,9.36,40.172,10.766z" style="fill:#9E2F30;"/><path d="M40.688,32.173c0.182-0.2,0.328-0.37,0.483-0.53c1.721-1.768,3.641-3.246,5.948-4.19     c0.85-0.348,1.66-0.499,2.526-0.063c0.375,0.189,0.801,0.276,1.307,0.443c-0.21,0.125-0.351,0.215-0.497,0.296     c-2.245,1.245-4.447,2.557-6.413,4.225c-0.335,0.284-0.631,0.614-0.961,0.904c-0.093,0.081-0.288,0.171-0.364,0.128     C42.047,33.01,41.394,32.602,40.688,32.173z" style="fill:#9E2F30;"/><path d="M1.55,50.532c0.031-0.171,0.031-0.229,0.052-0.28c1.414-3.571,2.823-7.147,4.827-10.441     c0.468-0.769,1.11-1.433,1.68-2.138c0.072-0.089,0.196-0.137,0.339-0.233c0.389,0.86,0.779,1.691,1.132,2.539     c0.051,0.123-0.031,0.359-0.13,0.478c-0.69,0.829-1.387,1.652-2.106,2.455c-1.836,2.05-3.657,4.11-5.107,6.465     C2.022,49.724,1.819,50.078,1.55,50.532z" style="fill:#9E2F30;"/><path d="M3.537,57.686c0.405-1.33,0.79-2.667,1.218-3.989c0.987-3.047,2.024-6.077,3.578-8.894     c0.429-0.777,0.971-1.492,1.51-2.309c0.487,0.609,0.89,1.114,1.293,1.62C8.301,48.481,5.739,52.977,3.537,57.686z" style="fill:#9E2F30;"/><path d="M56.671,29.958c-0.938,0.293-1.824,0.51-2.663,0.846c-1.391,0.557-2.765,1.161-4.116,1.809     c-0.421,0.202-0.735,0.62-1.114,0.919c-0.109,0.086-0.288,0.162-0.413,0.137c-0.772-0.16-1.537-0.351-2.338-0.539     c0.042-0.074,0.064-0.145,0.111-0.189c2.323-2.147,4.951-3.699,8.127-4.205c0.546-0.087,0.999-0.043,1.402,0.381     C55.946,29.41,56.29,29.643,56.671,29.958z" style="fill:#9E2F30;"/><path d="M44.299,27.019c-0.911,0.618-1.751,1.163-2.563,1.745c-1.113,0.797-2.188,1.641-3.015,2.756     c-0.067,0.09-0.223,0.16-0.339,0.162c-0.865,0.013-1.731,0.007-2.646,0.007c0.055-0.107,0.08-0.19,0.131-0.25     c1.678-1.979,3.619-3.635,5.956-4.791c0.206-0.102,0.495-0.114,0.726-0.069C43.111,26.687,43.66,26.854,44.299,27.019z" style="fill:#9E2F30;"/><path d="M37.162,28.053c-0.671,0.565-1.265,1.03-1.819,1.54c-1.34,1.235-2.659,2.492-3.993,3.734     c-0.1,0.093-0.252,0.178-0.383,0.183c-0.574,0.02-1.15,0.009-1.763,0.009c0.029-0.087,0.034-0.147,0.064-0.19     c1.415-1.989,3.092-3.711,5.191-4.983c0.291-0.176,0.67-0.25,1.016-0.28C35.995,28.019,36.522,28.053,37.162,28.053z" style="fill:#9E2F30;"/><path d="M63.832,45.251c-1.348-0.636-2.693-1.341-4.095-1.905c-0.833-0.335-1.746-0.52-2.641-0.647     c-2.191-0.309-3.854,0.887-4.364,3.07c-0.361,1.546,0.145,2.82,1.303,3.843c1.244,1.099,2.722,1.616,4.381,1.628     c0.013,0.045,0.026,0.09,0.039,0.135c-0.755,0.222-1.497,0.513-2.267,0.654c-3.393,0.624-6.1-0.616-8.284-3.168     c-0.413-0.483-1.058-1.274-1.407-1.806c-0.193-5.275,6.341-7.241,6.94-7.21c2.458-0.269,4.859-0.158,7.092,1.05     c1.711,0.926,2.748,2.391,3.293,4.231C63.841,45.192,63.833,45.268,63.832,45.251z" style="fill:#F5B400;"/><g style="opacity:0.2;"><g><path d="M10.969,36.962c-0.303-0.6-1.234-2.495-1.234-2.495C10.121,35.305,10.548,36.124,10.969,36.962z"/><path d="M18.478,9c0.322-0.147,0.637-0.291,0.931-0.425C19.099,8.716,18.786,8.859,18.478,9z"/><path d="M17.339,9.52c0.143-0.065,0.288-0.132,0.435-0.199C17.63,9.387,17.484,9.454,17.339,9.52z"/><path d="M19.995,8.307c0.157-0.072,0.299-0.137,0.424-0.194C20.277,8.178,20.136,8.242,19.995,8.307z"/><path d="M20.609,8.026c0.221-0.101,0.36-0.164,0.36-0.164C20.848,7.917,20.73,7.971,20.609,8.026z"/><path d="M22.737,33.505c-0.075-0.031-0.141-0.043-0.206-0.053c0.141,0.042,0.28,0.081,0.414,0.118       C22.876,33.548,22.802,33.532,22.737,33.505z"/><path d="M20.419,8.113c0.064-0.029,0.126-0.058,0.19-0.087C20.551,8.052,20.488,8.081,20.419,8.113z"/><path d="M15.463,10.377c0.631-0.288,1.253-0.572,1.876-0.857C16.5,9.904,15.762,10.241,15.463,10.377z"/><path d="M19.408,8.575c0.195-0.089,0.391-0.178,0.587-0.268C19.814,8.389,19.619,8.478,19.408,8.575z"/><path d="M17.774,9.321c0.233-0.107,0.47-0.215,0.703-0.321C18.244,9.107,18.008,9.214,17.774,9.321z"/><path d="M22.945,33.569c0.209,0.063,0.43,0.112,0.686,0.18C23.631,33.749,23.321,33.672,22.945,33.569z"/><path d="M52.797,39.5c-0.538-0.694-0.844-1-1.5-1.484c-0.16-0.129-0.854-0.693-0.969-0.766       c-0.294-0.191-0.573-0.361-0.889-0.513c-0.955-0.461-0.793-0.595-1.943-0.708c-2.217-0.218-4.307,0.171-6.14,1.506       c-2.446,1.782-3.781,4.285-4.387,7.175c-0.227,1.086-0.034,1.954,0.519,2.55c0.014,0.02,0.035,0.038,0.052,0.057       c0.081,0.082,0.176,0.153,0.272,0.224c0.312,0.23,0.69,0.406,1.146,0.51c0.702,0.159,1.443,0.212,2.175,0.205       c0.013,0.001,0.025,0.003,0.038,0.004c2.213,0.209,5.954-1.18,5.954-1.18c4.878-1.884,6.06-7.121,6.089-7.21       c0-0.001-0.558,0.13-0.558,0.13C52.632,39.974,52.82,39.525,52.797,39.5z"/><path d="M35.137,43.892c1.685-5.467,5.389-8.592,10.971-9.153c-1.576-0.237-2.756-0.539-4.344-0.307       c-5.036,0.735-8.382,3.493-9.977,8.347c-0.296,0.824,3.042,1.712,3.042,1.712C34.965,44.329,35.062,44.135,35.137,43.892z"/><path d="M36.836,34.003c0.599-0.226,0.924-0.259,1.601-0.481c-1.906-0.287-4.017,0.02-5.918,0.997       c-2.866,1.473-4.797,3.821-6.165,6.669c-0.092,0.192-0.203,0.366-0.322,0.531h0.002c0.617,0.718,3.765,0.645,3.765,0.645       c0.047-1.627,0.6-3.089,1.537-4.406C32.717,36.016,34.649,34.826,36.836,34.003z"/><path d="M25.389,36.911c0.874-1.289,1.655-2.17,2.938-3.015c-3.438,1.064-5.892,2.744-7.219,6.359       c-0.24,0.594,3.146,1.028,3.146,1.028C24.069,39.631,24.509,38.21,25.389,36.911z"/><path d="M11.408,24.592c-0.006-0.083-0.293-1.92,0.092-2.639c-0.044-1.597-0.403-2.036-2.227-2.357       c-0.045-0.008-0.09-0.015-0.135-0.024c-0.641-0.131-1.139,0.112-1.504,0.621c-0.158,0.221-0.29,0.467-0.394,0.719       c-0.045,0.258-0.52,2.992-0.495,4.213c1.421-0.127,2.78-0.271,4.141-0.358C11.132,24.751,11.302,24.711,11.408,24.592z"/><path d="M19.882,33.419c0,0-2.112-0.484-2.445-0.841c-0.123-0.002-0.242-0.175-0.369-0.093       c-1.185,0.758-2.244,1.661-3.165,2.722c-0.765,0.882-1.354,1.647-1.848,2.771l2.722,0.618       C16.143,36.387,18.027,35.202,19.882,33.419z"/><path d="M14.016,14.219c0.043-0.149,0.205-0.355,0.117-0.449c-0.409-0.443-0.857-0.85-1.319-1.296c0,0-3.561,3.777-4.393,4.819       c1.405,0.949,2.95,1.234,4.378,1.61C12.799,18.902,12.672,17.859,14.016,14.219z"/><path d="M12.787,29.528c0,0-1.818-1.247-1.818-2.606c-0.335-0.382-0.35-0.471-0.931-0.463c-1.79,0.023-2.725,0.786-2.878,2.428       C7.146,29.03,7.154,29.17,7.15,29.312c0.067,0.46,0.4,2.729,0.569,3.268C8.98,30.681,10.829,29.928,12.787,29.528z"/><path d="M16.195,31.837c0,0-1.361-0.101-2.148-0.556c-0.292,0.01-0.259-0.049-0.84,0.248c-1.319,0.674-2.541,1.486-3.521,2.615       c-0.106,0.122-0.205,0.375-0.15,0.494c0,0,0.931,1.895,1.234,2.495C12.247,35.019,14.275,33.508,16.195,31.837z"/><path d="M29.172,7.891c0-0.622,0.144-1.144,0.144-1.783c-2.375,0.115-4.699,0.309-7.054,0.423       c0.132,0.807,0.254,1.468,0.383,2.256C22.645,8.787,28.298,7.901,29.172,7.891z"/><path d="M20.419,9.16c-0.248-0.419-0.494-0.649-0.755-1.089c0,0-0.139,0.063-0.36,0.164c-0.064,0.029-0.126,0.058-0.19,0.087       c-0.126,0.057-0.267,0.122-0.424,0.194c-0.196,0.089-0.391,0.179-0.587,0.268c-0.293,0.134-0.608,0.278-0.931,0.425       c-0.233,0.107-0.47,0.215-0.703,0.321c-0.148,0.067-0.292,0.134-0.435,0.199c-0.623,0.285-1.245,0.569-1.876,0.857       c0.765,0.721,1.487,1.401,2.224,2.096C16.383,12.683,19.684,9.227,20.419,9.16z"/><path d="M19.925,38.852c1.071-1.51,2.159-3.008,3.241-4.511c0.083-0.115,0.158-0.236,0.253-0.379       c-0.256-0.068-0.478-0.117-0.686-0.18c-0.134-0.037-0.273-0.076-0.414-0.118c-0.258-0.039-0.456,0.073-0.664,0.292       c-0.763,0.803-1.546,1.589-2.336,2.366c-0.745,0.732-1.51,1.444-2.267,2.165l2.509,0.616       C19.703,39.085,19.813,39.009,19.925,38.852z"/></g></g><g><path d="M14.257,38.927l-2.799-0.906C12.425,38.335,13.351,38.634,14.257,38.927z" style="fill:#9E2F30;"/><path d="M9.969,36.962c-0.303-0.6-1.234-2.495-1.234-2.495C9.121,35.305,9.548,36.124,9.969,36.962z" style="fill:#9E2F30;"/><path d="M17.478,9c0.322-0.147,0.637-0.291,0.931-0.425C18.099,8.716,17.786,8.859,17.478,9z" style="fill:#9E2F30;"/><path d="M16.339,9.52c0.143-0.065,0.288-0.132,0.435-0.199C16.63,9.387,16.484,9.454,16.339,9.52z" style="fill:#9E2F30;"/><path d="M18.995,8.307c0.157-0.072,0.299-0.137,0.424-0.194C19.277,8.178,19.136,8.242,18.995,8.307z" style="fill:#9E2F30;"/><path d="M19.609,8.026c0.221-0.101,0.36-0.164,0.36-0.164C19.848,7.917,19.73,7.971,19.609,8.026z" style="fill:#9E2F30;"/><path d="M21.737,33.505c-0.075-0.031-0.141-0.043-0.206-0.053c0.141,0.042,0.28,0.081,0.414,0.118      C21.876,33.548,21.802,33.532,21.737,33.505z" style="fill:#9E2F30;"/><path d="M22.653,6.36c2.355-0.114,4.679-0.226,7.054-0.34C29.707,6.02,24.062,6.125,22.653,6.36z" style="fill:#FFDF74;"/><path d="M19.419,8.113c0.064-0.029,0.126-0.058,0.19-0.087C19.551,8.052,19.488,8.081,19.419,8.113z" style="fill:#FFDF74;"/><path d="M14.463,10.377c0.631-0.288,1.253-0.572,1.876-0.857C15.5,9.904,14.762,10.241,14.463,10.377z" style="fill:#FFDF74;"/><path d="M18.408,8.575c0.195-0.089,0.391-0.178,0.587-0.268C18.814,8.389,18.619,8.478,18.408,8.575z" style="fill:#FFDF74;"/><path d="M16.774,9.321c0.233-0.107,0.47-0.215,0.703-0.321C17.244,9.107,17.008,9.214,16.774,9.321z" style="fill:#FFDF74;"/><path d="M21.945,33.569c0.209,0.063,0.43,0.112,0.686,0.18C22.631,33.749,22.321,33.672,21.945,33.569z" style="fill:#FFDF74;"/><path d="M52.769,39.466c-0.538-0.694-1.143-1.269-1.8-1.753c-0.16-0.129-0.294-0.224-0.408-0.297      c-0.294-0.191-0.597-0.365-0.912-0.517c-0.955-0.461-2.003-0.758-3.152-0.871c-2.217-0.218-4.307,0.171-6.14,1.506      c-2.446,1.782-3.781,4.285-4.387,7.175c-0.227,1.086-0.034,1.954,0.519,2.55c0.014,0.02,0.035,0.038,0.052,0.057      c0.081,0.082,0.176,0.153,0.272,0.224c0.312,0.23,0.69,0.406,1.146,0.51c0.702,0.159,1.443,0.212,2.175,0.205      c0.013,0.001,0.025,0.003,0.038,0.004c2.213,0.209,5.954-1.18,5.954-1.18c4.878-1.884,6.68-7.444,6.708-7.534      c0-0.001,0.003-0.008,0.003-0.008C52.813,39.512,52.793,39.491,52.769,39.466z" style="fill:#9E2F30;"/><path d="M34.137,43.892c1.685-5.467,5.798-8.852,11.379-9.413c-1.576-0.237-3.165-0.279-4.753-0.048      c-5.036,0.735-8.382,3.493-9.977,8.347c-0.296,0.824,3.042,1.712,3.042,1.712C33.965,44.329,34.062,44.135,34.137,43.892z" style="fill:#FFDF74;"/><path d="M35.836,34.003c0.599-0.226,1.215-0.404,1.892-0.626c-1.906-0.287-4.308,0.165-6.209,1.142      c-2.866,1.473-4.797,3.821-6.165,6.669c-0.092,0.192-0.203,0.366-0.322,0.531h0.002c0.617,0.718,3.765,0.645,3.765,0.645      c0.047-1.627,0.6-3.089,1.537-4.406C31.717,36.016,33.649,34.826,35.836,34.003z" style="fill:#FFDF74;"/><path d="M24.389,36.911c0.874-1.289,2.072-2.228,3.355-3.074c-3.438,1.064-6.309,2.803-7.636,6.417      c-0.24,0.594,3.146,1.028,3.146,1.028C23.069,39.631,23.509,38.21,24.389,36.911z" style="fill:#FFDF74;"/><path d="M11.408,24.061c-0.006-0.083-0.126-1.893,0.259-2.613c-0.044-1.597-0.57-2.062-2.394-2.383      c-0.045-0.008-0.09-0.015-0.135-0.024c-0.641-0.131-1.139,0.112-1.504,0.621c-0.158,0.221-0.29,0.467-0.394,0.719      c-0.045,0.258-0.52,2.992-0.495,4.213c1.421-0.127,2.78-0.271,4.141-0.358C11.132,24.22,11.302,24.18,11.408,24.061z" style="fill:#FFDF74;"/><path d="M19.367,33.281c0,0-2.116-0.698-2.449-1.055c-0.123-0.002-0.238,0.039-0.365,0.121      c-1.185,0.758-2.244,1.661-3.165,2.722c-0.765,0.882-1.436,1.829-1.93,2.953l2.799,0.906      C15.622,36.719,17.512,35.064,19.367,33.281z" style="fill:#FFDF74;"/><path d="M14.327,13.822c0.043-0.149,0.05-0.388-0.038-0.483c-0.409-0.443-0.857-0.85-1.319-1.296      c0,0-3.561,3.777-4.393,4.819c1.405,0.949,2.95,1.234,4.378,1.61C12.956,18.472,13.729,14.042,14.327,13.822z" style="fill:#FFDF74;"/><path d="M12.4,29.075c0,0-1.751-1.323-1.384-2.518c-0.335-0.382-0.784-0.559-1.365-0.551      c-1.79,0.023-2.725,0.786-2.878,2.428c-0.013,0.143-0.005,0.283-0.009,0.425c0.067,0.46,0.4,2.729,0.569,3.268      C8.593,30.228,10.442,29.475,12.4,29.075z" style="fill:#FFDF74;"/><path d="M15.393,31.665c0,0-1.555-0.123-1.812-0.763c-0.292,0.01-0.595,0.159-1.176,0.456      c-1.319,0.674-2.541,1.486-3.521,2.615c-0.106,0.122-0.205,0.375-0.15,0.494c0,0,0.931,1.895,1.234,2.495      C11.446,34.847,13.473,33.336,15.393,31.665z" style="fill:#FFDF74;"/><path d="M29.707,7.865c0-0.622,0-1.206,0-1.845c-2.375,0.115-4.699,0.227-7.054,0.34      c0.132,0.807,0.254,1.551,0.383,2.339C23.036,8.699,28.833,7.875,29.707,7.865z" style="fill:#FFDF74;"/><path d="M20.714,9.121c-0.248-0.419-0.485-0.82-0.745-1.26c0,0-0.139,0.063-0.36,0.164      c-0.064,0.029-0.126,0.058-0.19,0.087c-0.126,0.057-0.267,0.122-0.424,0.194c-0.196,0.089-0.391,0.179-0.587,0.268      C18.115,8.709,17.8,8.853,17.478,9c-0.233,0.107-0.47,0.215-0.703,0.321c-0.148,0.067-0.292,0.134-0.435,0.199      c-0.623,0.285-1.245,0.569-1.876,0.857c0.765,0.721,1.487,1.401,2.224,2.096C16.687,12.473,19.979,9.188,20.714,9.121z" style="fill:#FFDF74;"/><path d="M19.138,38.639c1.071-1.51,2.159-3.008,3.241-4.511c0.083-0.115,0.158-0.236,0.253-0.379      c-0.256-0.068-0.478-0.117-0.686-0.18c-0.134-0.037-0.273-0.076-0.414-0.118c-0.258-0.039-0.456,0.073-0.664,0.292      c-0.763,0.803-1.546,1.589-2.336,2.366c-0.745,0.732-1.51,1.444-2.267,2.165l2.509,0.616      C18.916,38.872,19.026,38.796,19.138,38.639z" style="fill:#FFDF74;"/></g></g></g></svg>