<?xml version="1.0" ?><!DOCTYPE svg  PUBLIC '-//W3C//DTD SVG 1.1//EN'  'http://www.w3.org/Graphics/SVG/1.1/DTD/svg11.dtd'><svg id="Layer_1" style="enable-background:new 0 0 92 92;" version="1.1" viewBox="0 0 92 92" xml:space="preserve" xmlns="http://www.w3.org/2000/svg" xmlns:xlink="http://www.w3.org/1999/xlink"><g><g><path d="M34.863,71.368L12.47,58.93c-0.715-0.402-1.002-1.297-0.654-2.037l11.021-23.504l1.836-0.573     L13.109,57.499c-0.032,0.067-0.005,0.149,0.06,0.186l22.077,12.269L34.863,71.368z" style="fill:#4D4D4D;"/><path d="M73.084,35.449c0,0-3.272-1.13-3.688-5.711c0,0-2.975-3.986-1.19-6.663     c0,0-1.963,0.952-5.235-4.224s-12.85-8.745-19.275-5.949s-11.699,9.516-13.579,13.171c-2.008,3.903-7.065,7.175-9.92,6.164     c0,0,3.094-0.535,1.963-3.451c-1.13-2.915-3.688-2.32-4.402-1.368c-0.714,0.952-0.763,4.759,2.325,5.83     c3.088,1.071,6.896-1.435,8.919-3.306c2.023-1.87,7.734-11.389,13.505-12.4s15.825-2.142,22.131,13.862     c0,0,1.666,3.272,1.547,8.745c-0.119,5.473-3.272,18.442-11.541,21.12c-8.269,2.677-17.193,2.142-19.394,8.686     s2.38,9.995,3.748,10.114c1.368,0.119,4.819-0.952,2.856-4.462s-4.938,0.119-4.819,1.309c0,0-2.023-4.581,0.357-7.08     c2.38-2.499,8.269-3.391,12.672-3.629c4.402-0.238,11.66-1.963,17.372-8.329s4.759-14.338,4.64-15.587     C71.953,41.042,70.644,36.401,73.084,35.449z" style="fill:#BF4851;"/><path d="M39.118,78.646c-0.227-0.05-1.089-0.531-1.844-1.563l1.178-0.31     c0.008,0.086-0.001,0.137-0.001,0.138c0.079-0.397,0.874-1.368,1.4-1.368c0.202,0,0.49,0.292,0.752,0.761     c0.229,0.408,0.574,1.16,0.315,1.6c-0.258,0.44-1.108,0.746-1.71,0.746L39.118,78.646z M40.94,66.255     c1.922-0.797,4.318-1.298,6.982-1.854c2.333-0.488,4.745-0.992,7.159-1.774C64.154,59.69,67.484,45.982,67.61,40.18     c0.117-5.389-1.406-8.808-1.667-9.352C61.948,20.725,55.74,15.603,47.491,15.603c-1.933,0-3.729,0.27-5.232,0.533     c-0.912,0.16-1.809,0.491-2.684,0.947c1.458-1.149,3.037-2.153,4.69-2.872c1.312-0.571,2.826-0.86,4.502-0.86     c5.067,0,10.776,2.751,12.997,6.263c1.538,2.433,3.048,3.979,4.508,4.619c-0.375,2.515,1.138,5.103,1.744,6.019     c0.351,2.799,1.644,4.478,2.772,5.433c-0.977,1.818-0.512,4.503-0.252,6.004c0.053,0.306,0.099,0.561,0.116,0.737l0.011,0.112     c0.55,5.577-0.974,10.686-4.293,14.385c-5.932,6.613-13.435,7.698-16.386,7.857C47.15,64.934,43.777,65.327,40.94,66.255z      M19.305,30.956c-0.113-0.167-0.209-0.353-0.288-0.558c-0.371-0.962-0.22-1.931-0.098-2.155c0.025-0.02,0.27-0.178,0.611-0.178     c0.675,0,1.078,0.673,1.297,1.237c0.116,0.3,0.225,0.71,0.087,0.962c-0.174,0.316-0.744,0.522-0.977,0.568L19.305,30.956z" style="fill:#9E2F30;"/><path d="M15.615,55.141l-2.538-0.476l-2.359,1.108l0.817,0.642l-1.397-0.37l-1.453,0.682l0.981,0.734     l-1.551-0.466l-1.559,0.732l1.167,0.706L5.825,58.07l-1.693,0.795l1.725,0.599l-2.233-0.361l-2.289,1.075     c0,0,2.023,1.309,5.87,0.873c0,0-1.666,2.776-1.467,5.434l1.821-1.367L8,62.994l0.096,1.72l1.292-0.987l0.178-1.844l0.33,1.478     l0.971-0.729l0.008-1.364l0.427,1.038l0.993-0.746l-0.071-1.482l0.527,1.139l2.864-2.151l0.789-2.816L15.615,55.141z" style="opacity:0.2;"/><path d="M16.566,54.189c0,0,28.794-17.729,61.752-27.128v0.714c0,0-35.584,11.74-60.963,27.525     C17.356,55.3,15.059,56.093,16.566,54.189z" style="fill:#FFDF74;"/><path d="M77.367,28.429l-4.343-2.588c0,0,12.969-1.041,16.687-0.684c0,0-11.988,5.8-14.903,8.864     L77.367,28.429z" style="opacity:0.2;"/><path d="M78.319,27.478l-4.343-2.588c0,0,12.969-1.041,16.687-0.684c0,0-11.988,5.8-14.903,8.864     L78.319,27.478z" style="fill:#FAEC94;"/><path d="M16.566,54.189l-2.538-0.476l-2.359,1.108l0.817,0.642l-1.397-0.37l-1.453,0.682l0.981,0.734     l-1.551-0.466l-1.559,0.732l1.167,0.706l-1.897-0.363l-1.693,0.795l1.725,0.599l-2.233-0.361l-2.289,1.075     c0,0,2.023,1.309,5.87,0.873c0,0-1.666,2.776-1.467,5.434l1.821-1.367l0.44-2.123l0.096,1.72l1.292-0.987l0.178-1.844l0.33,1.478     l0.971-0.729l0.008-1.364l0.427,1.038l0.993-0.746l-0.071-1.482l0.527,1.139l2.864-2.151l0.789-2.816L16.566,54.189z" style="fill:#FAEC94;"/></g></g></svg>