<?xml version="1.0" ?><!DOCTYPE svg  PUBLIC '-//W3C//DTD SVG 1.1//EN'  'http://www.w3.org/Graphics/SVG/1.1/DTD/svg11.dtd'><svg id="Layer_1" style="enable-background:new 0 0 92 92;" version="1.1" viewBox="0 0 92 92" xml:space="preserve" xmlns="http://www.w3.org/2000/svg" xmlns:xlink="http://www.w3.org/1999/xlink"><g><g><path d="M46.172,22.502c0,0-0.917,6.083-0.75,8.167c0.167,2.083,0.209,5.583-0.02,6.583     s-1.48,5.167-1.48,5.167s-0.167,3.583-1.75,3.583c-1.583,0-3.667-0.083-4.25,1.667c-0.583,1.75-1.833,12.25,2.25,12.417     s4.75-1.667,7.333-1.167s6.083,2.167,5.833,11.583c0,0,2.083,6.083-2.833,6.333s-23.5-4.583-24.25-10.75     C25.505,59.918,17.089,14.168,46.172,22.502z" style="fill:#FFDF74;"/><path d="M45.422,22.491c0,0-1.006,6.836-0.936,10.174c0.07,3.338,0.11,4.944-0.24,6.19     c-0.35,1.246-1.16,3.278-1.324,4.563c-0.165,1.285-0.329,3.557-1.75,3.583c-1.421,0.027-6.417,0.083-7.167-4.417     S38.589,19.897,45.422,22.491z" style="opacity:0.2;"/><path d="M46.422,21.491c0,0-1.006,6.836-0.936,10.174c0.07,3.338,0.11,4.944-0.24,6.19     c-0.35,1.246-1.16,3.278-1.324,4.563c-0.165,1.285-0.329,3.557-1.75,3.583c-1.421,0.027-6.417,0.083-7.167-4.417     S39.589,18.897,46.422,21.491z" style="fill:#FAEC94;"/><path d="M17.125,9.086c0,0-11.891,39.748-3.214,57.582s27.556,19.611,32.574,19.165     c5.602-0.498,24.212-13.165,26.444-15.821c1.984-2.361,12.715-17.594,9.021-32.552c-3.694-14.958-10.878-25.182-22.703-20.737     c0,0,17.281-0.037,17.55,24.278c0.27,24.315-21.709,30.387-28.875,30.86s-16.917-9.521-17.625-20.524     c-0.708-11.003,9.625-26.253,9.625-26.253L17.125,9.086z" style="fill:#9E2F30;"/><g><path d="M27.585,33.477c-0.233,0.253-0.488,0.489-0.696,0.761c-2.414,3.159-4.976,6.195-7.589,9.19      c-0.198,0.228-0.416,0.439-0.627,0.66c-0.676-0.817-1.415-3.025-1.807-5.226c-0.324-1.818-0.383-3.645-0.272-5.481      c0.114-1.884,0.619-3.682,1.298-5.475c-0.326-0.068-0.412,0.143-0.511,0.289c-1.101,1.63-1.676,3.445-1.83,5.393      c-0.048,0.606-0.008,1.22-0.008,1.96c-0.291-0.103-0.506-0.124-0.645-0.238c-0.823-0.675-1.415-1.539-1.922-2.462      c-0.847-1.543-1.397-3.196-1.739-4.918c-0.792-3.991-0.551-7.908,0.921-11.717c1.073-2.775,2.697-5.187,4.967-7.127      c3.191-2.726,6.924-3.983,11.099-3.93c1.268,0.016,2.528-0.058,3.792-0.099c6.257-0.204,11.204,2.166,14.559,7.572      c0.183,0.295,0.376,0.591,0.61,0.844c2.513,2.715,3.885,5.97,4.547,9.563c0.566,3.071,0.614,6.157,0.342,9.262      c-0.602,6.888-2.466,13.457-4.945,19.875c-0.129,0.335-0.305,0.652-0.601,0.924c0.102-0.415,0.192-0.833,0.308-1.243      c1.281-4.541,2.32-9.136,2.94-13.816c0.512-3.86,0.776-7.735,0.344-11.625c-0.217-1.957-0.557-3.896-1.312-5.724      c-0.364-0.881-0.865-1.708-1.324-2.547c-0.094-0.172-0.283-0.293-0.501-0.51c-0.258,0.497-0.182,0.937-0.196,1.35      c-0.077,2.326-0.442,4.606-1.115,6.83c-0.961,3.176-2.419,6.081-4.813,8.441c-0.399,0.393-0.551,0.866-0.706,1.37      c-1.129,3.679-2.908,7.003-5.447,9.908c-1.533,1.754-3.267,3.275-5.237,4.521c-0.357,0.226-0.735,0.417-1.237,0.7      c0.046-0.558,0.32-0.852,0.465-1.191c0.171-0.401,0.365-0.793,0.529-1.196c0.147-0.363,0.283-0.733,0.395-1.109      c0.124-0.418,0.227-0.843,0.317-1.269c0.081-0.384,0.146-0.773,0.193-1.163c0.047-0.39,0.076-0.782,0.09-1.175      c0.016-0.436,0.018-0.873,0.004-1.31c-0.012-0.382-0.055-0.762-0.092-1.248c-0.413,0.317-0.342,0.692-0.366,1.008      c-0.15,2.021-0.655,3.957-1.386,5.837c-0.604,1.552-1.35,3.036-2.35,4.37c-1.927,2.57-3.4,5.381-4.568,8.363      c-0.094,0.241-0.207,0.475-0.318,0.73c-0.149-0.009-0.287,0.018-0.391-0.03c-5.349-2.473-9.086-6.407-10.828-12.096      c-0.553-1.804-0.858-3.661-0.463-5.555c0.106-0.509,0.24-1.024,0.445-1.499c0.908-2.099,1.496-4.279,1.771-6.548      c0.045-0.37,0.152-0.733,0.261-1.243c1.482,1.347,2.499,2.849,3.405,4.437c0.892,1.563,1.531,3.229,2.014,4.96      c0.492,1.763,0.614,3.584,0.813,5.401c0.343-0.064,0.364-0.319,0.437-0.502c0.842-2.124,2.006-4.066,3.32-5.926      c1.916-2.712,3.644-5.545,5.328-8.403c0.168-0.284,0.467-0.55,0.3-0.948c0.343,0.064,0.321-0.15,0.348-0.654      C27.718,33.19,27.652,33.333,27.585,33.477z" style="fill:#BF4851;"/><path d="M29.683,74.416c-0.26-0.038-0.429-0.036-0.578-0.089c-2.098-0.751-4.26-1.27-6.42-1.8      c-0.466-0.114-0.933-0.228-1.39-0.371c-4.495-1.401-7.448-4.371-8.97-8.806c-0.802-2.336-1.097-4.753-1.184-7.205      c-0.004-0.111,0.054-0.225,0.08-0.324c0.333-0.049,0.379,0.216,0.506,0.373c0.713,0.881,1.375,1.809,2.144,2.639      c1.382,1.491,2.999,2.641,4.973,3.271c1.646,0.525,2.861,1.64,3.779,3.082c0.303,0.476,0.565,0.978,0.85,1.475      c0.333-0.078,0.199-0.336,0.2-0.516c0.004-1.526-0.079-3.057,0.009-4.578c0.112-1.934,0.645-3.779,1.551-5.503      c1-1.903,2.424-3.401,4.279-4.488c0.15-0.088,0.305-0.169,0.467-0.232c0.073-0.029,0.167-0.005,0.317-0.005      c0.399,0.498,0.53,1.145,0.678,1.766c0.5,2.097,0.629,4.225,0.451,6.373c-0.225,2.708-0.784,5.348-1.577,7.944      c-0.216,0.707-0.38,1.433-0.52,2.16c-0.243,1.258-0.218,2.517,0.097,3.765C29.508,73.669,29.582,73.995,29.683,74.416z" style="fill:#BF4851;"/><path d="M36.436,79.851c-0.21,0.094-0.361,0.196-0.527,0.23c-1.493,0.3-2.983,0.627-4.486,0.871      c-3.207,0.521-6.028-0.405-8.538-2.398c-0.887-0.704-1.684-1.497-2.435-2.478c0.291-0.157,0.491-0.312,0.716-0.38      c3.52-1.062,6.884-0.726,10.069,1.153c0.187,0.111,0.367,0.235,0.55,0.352c0.181,0.116,0.363,0.23,0.544,0.346      c0.338-0.303,0-0.504-0.087-0.672c-0.987-1.886-1.526-3.887-1.611-6.009c-0.114-2.853,0.537-5.531,1.878-8.046      c0.039-0.072,0.122-0.121,0.195-0.191c0.452,0.086,0.73,0.437,1.035,0.733c1.845,1.785,2.951,3.98,3.473,6.467      C37.933,73.247,37.461,76.58,36.436,79.851z" style="fill:#BF4851;"/><path d="M56.711,66.13c1.17,1.061,1.683,2.172,1.827,3.465c0.168,1.51-0.117,2.955-0.726,4.335      c-0.35,0.793-0.743,1.568-1.119,2.358c0.383,0.262,0.681-0.04,0.975-0.136c1.728-0.567,3.48-0.782,5.285-0.481      c1.342,0.224,2.584,0.682,3.66,1.48c-0.046,0.32-0.251,0.297-0.409,0.309c-1.499,0.114-2.77,0.729-3.839,1.764      c-0.966,0.936-2.104,1.556-3.406,1.842c-1.378,0.303-2.762,0.331-4.136-0.083c-0.994-0.3-1.652-0.905-1.961-1.915      c-0.552-1.805-0.98-3.615-0.672-5.527c0.226-1.405,0.863-2.543,2.028-3.376c0.284-0.203,0.566-0.408,0.835-0.63      C56.038,68.725,56.667,67.718,56.711,66.13z" style="fill:#BF4851;"/><path d="M32.837,82.86c1.041-0.132,1.839-0.584,2.566-1.25c0.956-0.876,2.111-1.375,3.422-1.476      c0.169-0.013,0.336-0.059,0.546-0.097c-0.841-2.172-0.533-4.332-0.122-6.487c0.18-0.942,0.454-1.867,0.615-2.812      c0.227-1.328,0.386-2.667,0.086-4.07c0.635,0.15,0.989,0.552,1.357,0.909c1.516,1.467,2.473,3.264,2.994,5.288      c0.688,2.672,0.575,5.362,0.082,8.054c-0.078,0.428-0.345,0.691-0.647,0.945c-1.127,0.945-2.423,1.56-3.85,1.868      c-2.283,0.493-4.512,0.203-6.69-0.582C33.083,83.109,32.997,82.992,32.837,82.86z" style="fill:#BF4851;"/><path d="M46.714,69.858c2.811,2.444,4.505,5.236,4.768,8.778c0.071,0.951-0.02,1.914-0.053,2.871      c-0.02,0.587-0.268,1.089-0.626,1.549c-1.114,1.434-2.583,2.314-4.317,2.776c-1.425,0.38-2.854,0.741-4.328,1.122      c-0.179-0.155,0.001-0.36,0.086-0.529c0.371-0.738,0.712-1.499,1.162-2.188c1.046-1.6,2.383-2.79,4.414-2.726      c0.201-0.332-0.047-0.446-0.174-0.582c-1.485-1.588-1.991-3.428-1.479-5.55c0.143-0.592,0.212-1.201,0.342-1.797      c0.225-1.033,0.289-2.069,0.149-3.118C46.642,70.346,46.679,70.219,46.714,69.858z" style="fill:#BF4851;"/><path d="M72.929,70.012c-1.028,2.105-2.558,3.558-4.718,4.326c-0.955,0.34-1.959,0.484-2.963,0.421      c-1.609-0.101-3.214-0.279-4.819-0.438c-0.157-0.015-0.304-0.125-0.448-0.188c0.038-0.139,0.035-0.242,0.085-0.297      c1.48-1.612,3.23-2.792,5.392-3.265c0.547-0.12,1.126-0.152,1.688-0.137c1.795,0.05,3.575,0,5.319-0.49      C72.573,69.915,72.706,69.977,72.929,70.012z" style="fill:#BF4851;"/><path d="M78.6,61.36c0.353,3.871-4.941,7.669-9.246,6.742c0.164-0.73,0.163-0.73,0.866-1.659      c1.221-1.614,2.646-3.003,4.434-3.985C75.853,61.798,77.131,61.412,78.6,61.36z" style="fill:#BF4851;"/><path d="M66.126,69.339c-1.18-2.777-0.138-7.739,4.104-10.307c0.059,0.16,0.154,0.303,0.16,0.449      c0.075,1.876-0.016,3.743-0.606,5.539c-0.255,0.777-0.599,1.54-1.013,2.245C68.126,68.365,67.414,68.87,66.126,69.339z" style="fill:#BF4851;"/><path d="M73.844,51.985c1,2.359,1.623,4.516,1.452,6.835c-0.153,2.075-1.269,3.264-3.373,3.582      c-0.098-0.202-0.242-0.415-0.307-0.65c-0.263-0.938-0.263-1.893-0.133-2.852C71.804,56.544,72.634,54.365,73.844,51.985z" style="fill:#BF4851;"/><path d="M64.229,64.245c1.218,3.691-0.977,7.687-4.594,8.32c-0.044-0.239-0.122-0.477-0.126-0.718      c-0.019-1.085-0.032-2.166,0.247-3.234c0.36-1.379,1.144-2.414,2.369-3.128C62.795,65.094,63.463,64.697,64.229,64.245z" style="fill:#BF4851;"/><path d="M81.897,51.576c0.055,0.143,0.122,0.227,0.109,0.296c-0.406,2.155-1.139,4.185-2.357,6.021      c-0.556,0.839-1.223,1.582-2.055,2.159c-0.531,0.369-1.074,0.726-1.776,0.814c-0.056-0.127-0.155-0.24-0.144-0.341      c0.181-1.702,0.653-3.32,1.474-4.825c0.964-1.766,2.313-3.138,4.167-3.972C81.498,51.645,81.708,51.623,81.897,51.576z" style="fill:#BF4851;"/><path d="M82.493,43.044c-0.035,0.204-0.046,0.372-0.093,0.529c-0.298,1.015-0.351,2.058-0.366,3.106      c-0.004,0.305,0.004,0.611-0.008,0.915c-0.058,1.414-0.674,2.502-1.906,3.223c-0.37,0.216-0.748,0.42-1.138,0.638      C78.177,47.974,79.728,44.333,82.493,43.044z" style="fill:#BF4851;"/><path d="M76.332,54.67c-0.844-0.723-1.158-1.691-1.274-2.74c-0.108-0.971,0.099-1.901,0.431-2.814      c0.419-1.154,0.695-2.332,0.376-3.797c0.293,0.284,0.457,0.389,0.549,0.539c0.996,1.628,1.638,3.359,1.515,5.309      C77.841,52.538,77.335,53.677,76.332,54.67z" style="fill:#BF4851;"/><path d="M81.77,34.014c0.197,0.593,0.154,1.198,0.178,1.786c0.058,1.436,0.014,2.87-0.361,4.266      c-0.145,0.54-0.362,1.068-0.611,1.57c-0.209,0.422-0.509,0.801-0.977,0.988c-0.504-0.772-0.706-1.608-0.757-2.943      c-0.055-1.42,0.203-2.766,0.9-4.013C80.614,34.825,80.981,34.455,81.77,34.014z" style="fill:#BF4851;"/><path d="M78.145,46.194c-0.628-0.252-0.881-0.667-1.048-1.109c-0.26-0.689-0.516-1.389-0.665-2.107      c-0.338-1.623-0.419-3.275-0.393-4.932c0.002-0.115,0.071-0.23,0.135-0.426c0.18,0.091,0.341,0.141,0.462,0.239      c1.24,1.008,1.942,2.312,2.134,3.898C78.952,43.254,78.743,44.688,78.145,46.194z" style="fill:#BF4851;"/><path d="M73.682,30.856c3.354,1.239,5.043,3.701,4.654,6.581c-0.539,0.117-0.898-0.249-1.274-0.515      c-1.05-0.743-1.837-1.722-2.401-2.871C74.188,33.086,73.761,32.099,73.682,30.856z" style="fill:#BF4851;"/><path d="M79.495,25.692c0,0.255,0.003,0.511-0.001,0.766c-0.021,1.4,0.136,2.778,0.446,4.146      c0.234,1.034,0.261,2.078-0.226,3.068c-0.093,0.189-0.232,0.355-0.351,0.534c-0.617-0.452-0.836-0.797-1.241-1.914      c-0.471-1.299-0.621-2.63-0.308-3.982C78.05,27.294,78.452,26.347,79.495,25.692z" style="fill:#BF4851;"/><path d="M71.444,25.517c0.525-0.235,1.032-0.031,1.499,0.145c0.478,0.181,0.955,0.433,1.348,0.758      c1.268,1.048,2.048,2.415,2.506,4.005C75.034,30.388,72.531,28.016,71.444,25.517z" style="fill:#BF4851;"/><path d="M76.756,27.326c-1.87-1.603-2.406-3.883-1.563-6.314c0.623,0.448,1.252,1.666,1.666,3.227      C77.237,25.662,77.222,26.306,76.756,27.326z" style="fill:#BF4851;"/><path d="M68.824,21.486c1.241-0.254,2.262,0.016,3.225,0.533c0.955,0.513,1.614,1.288,1.914,2.351      c-0.685,0.268-0.862,0.296-1.375,0.213c-0.752-0.121-1.401-0.471-1.984-0.939C69.894,23.073,69.288,22.412,68.824,21.486z" style="fill:#BF4851;"/><path d="M64.954,13.89c1.538,0.316,2.802,0.834,3.8,1.868c0.499,0.516,1.042,1.043,1.03,1.854      c-0.547,0.259-0.998,0.025-1.433-0.139c-0.922-0.348-1.633-0.997-2.257-1.738C65.662,15.222,65.185,14.724,64.954,13.89z" style="fill:#BF4851;"/><path d="M71.102,16.289c1.836,1.066,2.931,3.314,2.533,5.198C71.977,20.704,70.779,18.245,71.102,16.289z      " style="fill:#BF4851;"/><path d="M65.37,18.438c2.175-0.38,3.918-0.109,5.326,1.297c0.018,0.396-0.235,0.432-0.426,0.459      c-0.509,0.072-1.04,0.205-1.533,0.129C67.479,20.13,66.366,19.605,65.37,18.438z" style="fill:#BF4851;"/><path d="M59.247,16.723c1.625-1.545,3.092-1.764,4.749-0.824c0.629,0.357,1.241,0.745,1.855,1.115      c-0.14,0.342-0.392,0.281-0.583,0.298c-1.006,0.088-1.992-0.023-2.953-0.339c-0.493-0.162-0.977-0.405-1.482-0.46      C60.383,16.465,59.91,16.626,59.247,16.723z" style="fill:#BF4851;"/></g></g></g></svg>